<svg width="307" height="341" viewBox="0 0 307 341" fill="none" xmlns="http://www.w3.org/2000/svg">
<path d="M135.962 235.934C195.847 235.934 244.393 184.965 244.393 122.092C244.393 59.2195 195.847 8.25098 135.962 8.25098C76.0769 8.25098 27.5307 59.2195 27.5307 122.092C27.5307 184.965 76.0769 235.934 135.962 235.934Z" stroke="#C9EDFF" stroke-width="4.233" stroke-miterlimit="10"/>
<path d="M135.962 202.152C178.076 202.152 212.216 166.308 212.216 122.092C212.216 77.8767 178.076 42.0328 135.962 42.0328C93.8473 42.0328 59.7069 77.8767 59.7069 122.092C59.7069 166.308 93.8473 202.152 135.962 202.152Z" stroke="#C9EDFF" stroke-width="4.233" stroke-miterlimit="10"/>
<path d="M135.962 8.2522V235.934" stroke="#C9EDFF" stroke-width="4.233" stroke-miterlimit="10"/>
<path d="M94.4661 16.9178L177.456 227.268" stroke="#C9EDFF" stroke-width="4.233" stroke-miterlimit="10"/>
<path d="M35.7843 78.5275L236.138 165.659" stroke="#C9EDFF" stroke-width="4.233" stroke-miterlimit="10"/>
<path d="M35.7843 165.659L236.138 78.5275" stroke="#C9EDFF" stroke-width="4.233" stroke-miterlimit="10"/>
<path d="M94.4661 227.268L177.456 16.9178" stroke="#C9EDFF" stroke-width="4.233" stroke-miterlimit="10"/>
<path d="M59.2883 41.5947L212.633 202.591" stroke="#C9EDFF" stroke-width="4.233" stroke-miterlimit="10"/>
<path d="M27.5306 122.092H244.392" stroke="#C9EDFF" stroke-width="4.233" stroke-miterlimit="10"/>
<path d="M59.2883 202.591L212.633 41.5947" stroke="#C9EDFF" stroke-width="4.233" stroke-miterlimit="10"/>
<path d="M61.2086 34.6862C56.1847 34.6862 52.1113 38.9628 52.1113 44.2374V48.8619C52.1113 54.1365 56.1847 58.4131 61.2086 58.4131C66.2325 58.4131 70.3059 54.1365 70.3059 48.8619V44.2374C70.3059 38.9628 66.2325 34.6862 61.2086 34.6862Z" fill="#C9EDFF"/>
<path d="M36.628 69.3944C31.6041 69.3944 27.5307 73.671 27.5307 78.9456V83.5701C27.5307 88.8447 31.6041 93.1213 36.628 93.1213C41.6519 93.1213 45.7253 88.8447 45.7253 83.5701V78.9456C45.7253 73.6699 41.6519 69.3944 36.628 69.3944Z" fill="#C9EDFF"/>
<path d="M212.634 34.6862C207.61 34.6862 203.536 38.9628 203.536 44.2374V48.8619C203.536 54.1365 207.61 58.4131 212.634 58.4131C217.657 58.4131 221.731 54.1365 221.731 48.8619V44.2374C221.731 38.9628 217.657 34.6862 212.634 34.6862Z" fill="#C9EDFF"/>
<path d="M177.456 8.2522C172.432 8.2522 168.359 12.5288 168.359 17.8034V22.4279C168.359 27.7025 172.432 31.9791 177.456 31.9791C182.48 31.9791 186.553 27.7025 186.553 22.4279V17.8034C186.553 12.5276 182.48 8.2522 177.456 8.2522Z" fill="#C9EDFF"/>
<path d="M27.5306 113.71C22.5067 113.71 18.4333 117.987 18.4333 123.262V127.886C18.4333 133.161 22.5067 137.437 27.5306 137.437C32.5545 137.437 36.6279 133.161 36.6279 127.886V123.262C36.6279 117.986 32.5545 113.71 27.5306 113.71Z" fill="#C9EDFF"/>
<path d="M36.8868 158.684C31.8628 158.684 27.7895 162.961 27.7895 168.236V172.86C27.7895 178.135 31.8628 182.411 36.8868 182.411C41.9107 182.411 45.984 178.135 45.984 172.86V168.236C45.984 162.961 41.9118 158.684 36.8868 158.684Z" fill="#C9EDFF"/>
<path d="M95.4947 216.144C90.4708 216.144 86.3975 220.421 86.3975 225.695V230.32C86.3975 235.594 90.4708 239.871 95.4947 239.871C100.519 239.871 104.592 235.594 104.592 230.32V225.695C104.592 220.421 100.52 216.144 95.4947 216.144Z" fill="#C9EDFF"/>
<path d="M244.392 113.71C239.368 113.71 235.294 117.987 235.294 123.262V127.886C235.294 133.161 239.368 137.437 244.392 137.437C249.416 137.437 253.489 133.161 253.489 127.886V123.262C253.489 117.986 249.417 113.71 244.392 113.71Z" fill="#C9EDFF"/>
<path d="M235.294 72.8839C230.271 72.8839 226.197 77.1605 226.197 82.4351V87.0596C226.197 92.3342 230.271 96.6108 235.294 96.6108C240.318 96.6108 244.392 92.3342 244.392 87.0596V82.4351C244.392 77.1605 240.319 72.8839 235.294 72.8839Z" fill="#C9EDFF"/>
<path d="M61.7174 194.845C56.6935 194.845 52.6201 199.122 52.6201 204.396V209.021C52.6201 214.296 56.6935 218.572 61.7174 218.572C66.7413 218.572 70.8147 214.296 70.8147 209.021V204.396C70.8147 199.121 66.7413 194.845 61.7174 194.845Z" fill="#C9EDFF"/>
<path d="M212.634 194.845C207.61 194.845 203.536 199.122 203.536 204.396V209.021C203.536 214.296 207.61 218.572 212.634 218.572C217.657 218.572 221.731 214.296 221.731 209.021V204.396C221.731 199.121 217.657 194.845 212.634 194.845Z" fill="#C9EDFF"/>
<path d="M135.962 228.123C130.938 228.123 126.864 232.4 126.864 237.674V242.299C126.864 247.574 130.938 251.85 135.962 251.85C140.985 251.85 145.059 247.574 145.059 242.299V237.674C145.058 232.4 140.985 228.123 135.962 228.123Z" fill="#C9EDFF"/>
<path d="M177.456 218.572C172.432 218.572 168.359 222.849 168.359 228.123V232.748C168.359 238.022 172.432 242.299 177.456 242.299C182.48 242.299 186.553 238.022 186.553 232.748V228.123C186.553 222.849 182.48 218.572 177.456 218.572Z" fill="#C9EDFF"/>
<path d="M235.294 158.684C230.271 158.684 226.197 162.961 226.197 168.236V172.86C226.197 178.135 230.271 182.411 235.294 182.411C240.318 182.411 244.392 178.135 244.392 172.86V168.236C244.392 162.961 240.319 158.684 235.294 158.684Z" fill="#C9EDFF"/>
<path d="M135.962 0C130.938 0 126.864 4.27662 126.864 9.55122V14.1757C126.864 19.4503 130.938 23.7269 135.962 23.7269C140.985 23.7269 145.059 19.4503 145.059 14.1757V9.55122C145.058 4.27662 140.985 0 135.962 0Z" fill="#C9EDFF"/>
<path d="M95.4947 8.2522C90.4708 8.2522 86.3975 12.5288 86.3975 17.8034V22.4279C86.3975 27.7025 90.4708 31.9791 95.4947 31.9791C100.519 31.9791 104.592 27.7025 104.592 22.4279V17.8034C104.592 12.5276 100.52 8.2522 95.4947 8.2522Z" fill="#C9EDFF"/>
<path d="M247.779 125.925V118.426H243.515L220.119 83.7518V32.6339C220.119 31.3009 219.09 30.2209 217.82 30.2209C216.551 30.2209 215.522 31.3009 215.522 32.6339V83.7518L192.126 118.426H187.862V125.925H192.126V169.31H187.862V176.809H192.126V220.193H187.862V227.692H192.126V271.077H187.862V278.576H192.126V289.643H217.82H243.515V278.576H247.779V271.077H243.515V227.692H247.779V220.193H243.515V176.809H247.779V169.31H243.515V125.925H247.779Z" fill="#AFE5FE"/>
<path d="M84.0666 115.316H49.9557V263.345H84.0666V115.316Z" fill="#AFE5FE"/>
<path d="M114.046 78.0274H94.2214V247.512H157.224V41.275H114.046V78.0274Z" fill="#AFE5FE"/>
<path d="M294.867 177.676H112.204V333.461H294.867V177.676Z" fill="white"/>
<path d="M287.989 184.697H119.083V326.44H287.989V184.697Z" fill="#53B879"/>
<mask id="mask0_206_30" style="mask-type:luminance" maskUnits="userSpaceOnUse" x="119" y="184" width="169" height="143">
<path d="M287.989 184.697H119.083V326.44H287.989V184.697Z" fill="white"/>
</mask>
<g mask="url(#mask0_206_30)">
<path d="M287.989 293.377V253.625L224.184 225.04L191.504 277.641L287.989 293.377Z" fill="#F2F0E9"/>
<path d="M212.582 326.44L235.852 284.874L191.504 277.641L161.186 326.44H212.582Z" fill="#B3D1FF"/>
<path d="M180.619 295.161L212.435 243.951L169.309 207.942L128.431 253.248L180.619 295.161Z" fill="#E9E5DC"/>
<path d="M119.083 263.608L169.309 207.942L141.471 184.697H119.083V263.608Z" fill="#53B879"/>
<path d="M249.249 184.697L224.184 225.04L287.989 253.625V184.697H249.249Z" fill="#E9E5DC"/>
<path d="M141.471 184.697H249.249L212.435 243.951L141.471 184.697Z" fill="#CADFAA"/>
<path d="M161.186 326.44L180.619 295.161L128.431 253.248L119.083 263.608V326.44H161.186Z" fill="#CADFAA"/>
<path d="M254.663 170.082L150.706 337.456L155.79 340.936L259.747 173.563L254.663 170.082Z" fill="#FFE168"/>
<path d="M301.403 262.872C301.208 262.787 281.671 254.368 262.341 245.901C221.94 228.209 221.865 227.958 221.286 226.006L221.643 223.3L225.914 216.425L230.997 219.905L228.546 223.853C239.012 228.897 277.48 245.675 303.708 256.977L301.403 262.872Z" fill="#FFE168"/>
<path d="M213.155 248.622L117.058 168.381L120.835 163.393L211.716 239.278L212.069 238.708L217.153 242.189L213.155 248.622Z" fill="#FFE168"/>
<path d="M107.314 281.285L102.907 276.902L164.831 208.272L162.691 206.485L166.469 201.499L173.788 207.611L107.314 281.285Z" fill="#FFE168"/>
<path d="M315.845 301.144L192.974 281.105L181.373 299.779L123.909 253.627L132.487 244.118L136.893 248.501L132.953 252.868L179.864 290.544L190.033 274.178L316.777 294.848L315.845 301.144Z" fill="#FFE168"/>
<path d="M206.151 344.214L200.92 340.983L230.973 287.301L226.73 286.61L227.662 280.314L240.731 282.445L206.151 344.214Z" fill="#FFE168"/>
</g>
<path d="M161.049 236.684H104.698V334.809H161.049V236.684Z" fill="#25A599"/>
<path d="M138.411 259.659C138.411 259.659 143.96 154.205 161.896 138.276C179.832 122.347 169.896 171.727 169.896 171.727C169.896 171.727 178.314 165.219 182.866 176.757C187.418 188.295 174.01 206.627 171.941 205.977C169.874 205.326 182.259 207.216 175.886 224.517C169.516 241.818 138.411 259.659 138.411 259.659Z" fill="#25A599"/>
<path d="M148.502 302.668C148.502 302.668 158.896 278.455 179.227 254.879C199.558 231.304 215.033 217.923 224.744 227.799C234.455 237.675 213.517 258.191 213.517 258.191C213.517 258.191 227.172 267.199 217.766 277.447C208.359 287.694 187.909 291.729 187.909 291.729C187.909 291.729 195.31 306.172 182.869 312.544C170.426 318.917 148.502 302.668 148.502 302.668Z" fill="#25A599"/>
<path d="M141.598 298.848C141.598 298.848 137.956 258.065 153.432 229.393C168.908 200.72 188.935 184.856 197.129 192.629C205.322 200.401 175.887 241.818 175.887 241.818C175.887 241.818 191.363 237.039 191.97 249.464C192.577 261.889 167.226 273.359 167.226 273.359C167.226 273.359 177.222 272.529 177.707 282.28C178.193 292.029 141.598 298.848 141.598 298.848Z" fill="#31DCCC"/>
<path d="M141.225 336.758C141.225 336.758 162.867 301.395 181.652 285.146C200.437 268.898 223.398 255.623 230.478 263.057C237.558 270.49 207.82 289.819 207.82 289.819C207.82 289.819 224.005 290.456 224.611 301.075C225.218 311.695 189.614 317.004 189.614 317.004C189.614 317.004 196.29 319.765 194.671 327.412C193.052 335.059 141.225 336.758 141.225 336.758Z" fill="#31DCCC"/>
<path d="M112.456 320.19C112.456 320.19 110.545 256.047 97.2941 223.34C84.0431 190.631 62.7012 165.178 48.4383 170.47C34.1765 175.763 57.2388 215.269 57.2388 215.269C57.2388 215.269 41.1563 197.687 36.9077 211.735C32.6592 225.783 62.0943 247.128 62.0943 247.128C62.0943 247.128 43.0842 248.935 53.9554 269.377C64.8266 289.82 112.456 320.19 112.456 320.19Z" fill="#25A599"/>
<path d="M99.7822 334.809C99.7822 334.809 71.1247 300.631 56.0262 295.872C40.9265 291.112 19.1573 285.041 11.7224 293.005C4.28749 300.97 36.7572 309.73 36.7572 309.73C36.7572 309.73 31.5983 313.713 33.7226 318.173C35.8468 322.634 55.7227 322.793 55.7227 322.793C55.7227 322.793 50.5638 325.979 58.6056 332.033C66.6464 338.085 99.7822 334.809 99.7822 334.809Z" fill="#25A599"/>
<path d="M108.611 336.758C108.611 336.758 99.8235 295.449 79.189 269.377C58.5544 243.305 31.7501 230.562 24.1635 230.562C16.5768 230.562 25.3773 250.123 32.4575 257.748C38.2534 263.991 49.0454 273.677 49.0454 273.677C49.0454 273.677 34.6821 270.703 32.2544 276.65C29.8267 282.597 38.1207 289.607 45.8088 294.491C53.4959 299.376 62.1636 304.63 62.1636 304.63C62.1636 304.63 53.2092 303.951 52.3412 310.584C51.4732 317.218 67.6573 326.351 81.4137 330.174C95.17 333.996 108.611 336.758 108.611 336.758Z" fill="#31DCCC"/>
<path d="M138.232 122.875C138.232 122.875 138.889 115.444 135.046 111.726C131.202 108.008 101.262 109.709 94.7885 111.726C88.3153 113.743 82.4479 119.69 81.6391 125.424C80.8302 131.159 80.8302 179.372 83.8648 185.107C86.8995 190.842 101.445 188.505 112.278 189.354C123.111 190.203 134.252 189.566 135.863 186.486C137.475 183.407 138.232 122.875 138.232 122.875Z" fill="#202045"/>
<path d="M122.177 191.797L132.779 319.339H151.536L147.364 187.6L122.177 191.797Z" fill="#202045"/>
<path d="M147.659 196.908L147.429 189.638L135.543 189.571L122.177 191.798L122.986 201.528C128.773 201.353 134.318 200.939 138.276 200.102C141.904 199.334 145.022 198.174 147.659 196.908Z" fill="#181834"/>
<path d="M99.1153 191.797L96.0048 319.339H114.819L127.337 191.797H99.1153Z" fill="#2B2B5C"/>
<path d="M98.8854 201.246C104.539 201.497 116.28 201.89 126.395 201.393L127.336 191.797H99.1152L98.8854 201.246Z" fill="#202045"/>
<path d="M141.902 120.857C141.902 120.857 148.906 130.308 151.372 136.043C153.837 141.778 155.456 151.761 157.884 158.133C160.312 164.505 161.525 172.787 161.525 172.787L146.757 161.319C146.757 161.319 134.215 123.512 141.902 120.857Z" fill="#F23B73"/>
<path d="M109.433 112.893C109.433 112.893 100.027 115.654 96.7888 119.265C93.5522 122.875 78.9736 159.03 77.6259 162.465C75.8051 167.108 79.9889 172.363 85.8551 174.699C91.7214 177.036 103.171 165.731 103.171 165.731C103.171 165.731 95.7758 183.832 95.7758 188.293C95.7758 192.753 97.4315 196.507 103.078 197.179C108.723 197.85 145.542 199.336 149.79 194.452C154.039 189.567 148.577 174.274 146.756 161.319C144.935 148.362 143.114 122.77 141.9 120.858C140.687 118.946 128.042 111.831 128.042 111.831L109.433 112.893Z" fill="#F23B73"/>
<path d="M85.9302 157.028L101.741 150.026L98.8855 160.029L85.9302 157.028Z" fill="#B52C56"/>
<path d="M147.174 163.978H97.0389L97.6459 170.413C100.79 168.079 103.171 165.73 103.171 165.73C103.171 165.73 101.749 169.208 100.154 173.49L107.333 178.977L115.236 172.26L119.82 177.52L129.02 170.638L134.128 176.353L144.521 170.052L147.572 175.031L149.061 173.475C148.397 170.34 147.71 167.119 147.174 163.978Z" fill="#B52C56"/>
<path d="M129.667 112.757C129.667 112.757 133.101 119.104 134.012 129.139C134.922 139.176 134.922 160.84 134.922 160.84L140.233 159.884C140.233 159.884 143.968 138.845 143.431 130.536C142.895 122.226 143.115 119.582 140.536 117.193C137.957 114.803 129.713 111.726 129.157 111.725C128.6 111.724 128.6 112.145 128.6 112.145L129.667 112.757Z" fill="#2B2B5C"/>
<path d="M104.037 155.963C104.037 155.963 106.53 147.141 104.037 135.672C101.543 124.202 96.0885 120.284 96.0885 120.284C96.0885 120.284 95.5742 118.309 98.2038 115.867C100.834 113.424 104.293 112.362 105.699 112.362C107.105 112.362 110.038 117.353 111.252 126.274C112.466 135.195 109.431 156.664 109.431 156.664L104.037 155.963Z" fill="#2B2B5C"/>
<path d="M106.5 93.7774C106.5 93.7774 104.502 88.7593 104.881 83.9005C105.26 79.0417 107.84 79.6789 107.84 79.6789C107.84 79.6789 108.447 76.0946 112.088 73.7847C115.73 71.4748 117.93 72.0324 122.634 70.0411C127.338 68.0498 128.183 67.7581 130.017 68.366C132.329 69.1333 131.585 71.1562 131.585 71.1562C131.585 71.1562 135.378 69.4038 137.047 72.8289C138.716 76.2539 133.341 81.7534 133.341 81.7534C133.341 81.7534 133.633 90.4308 131.964 92.5018C130.295 94.5727 112.62 97.7588 110.268 96.4843C107.916 95.2099 106.5 93.7774 106.5 93.7774Z" fill="#2B2B5C"/>
<path d="M109.837 98.2367L109.432 112.891C109.432 112.891 114.995 114.166 120.357 114.166C125.719 114.166 128.044 111.83 128.044 111.83L126.527 98.2367H109.837Z" fill="#FDC683"/>
<path d="M124.504 111.724C125.724 111.738 126.891 111.633 128 111.444L126.526 98.2367H109.837L109.729 102.163C112.594 107.476 117.999 111.652 124.504 111.724Z" fill="#FF9996"/>
<path d="M131.888 80.8737C131.888 80.8737 133.608 99.5111 133.304 102.379C133.001 105.246 130.269 108.325 125.819 108.432C121.368 108.539 117.15 107.901 115.062 104.715C112.973 101.529 112.266 99.087 112.266 99.087C112.266 99.087 107.46 99.9105 106.248 96.4855C105.034 93.0604 105.927 91.3374 108.099 91.2027C110.269 91.0691 111.558 95.0517 111.558 95.0517C111.558 95.0517 113.303 93.2197 113.834 91.786C114.365 90.3523 113.379 81.9091 113.379 81.9091C113.379 81.9091 124.453 83.1039 131.888 80.8737Z" fill="#FDC683"/>
<path d="M120.893 84.9183H117.267C116.703 84.9183 116.244 85.3986 116.244 85.9925C116.244 86.5852 116.702 87.0666 117.267 87.0666H120.893C121.458 87.0666 121.917 86.5864 121.917 85.9925C121.915 85.3986 121.458 84.9183 120.893 84.9183Z" fill="#2B2B5C"/>
<path d="M130.744 84.9183H127.118C126.553 84.9183 126.095 85.3986 126.095 85.9925C126.095 86.5852 126.552 87.0666 127.118 87.0666H130.744C131.308 87.0666 131.767 86.5864 131.767 85.9925C131.767 85.3986 131.308 84.9183 130.744 84.9183Z" fill="#2B2B5C"/>
<path d="M121.683 91.8482C121.683 90.9322 120.976 90.1884 120.102 90.1884C119.229 90.1884 118.521 90.931 118.521 91.8482C118.521 92.7642 119.229 93.508 120.102 93.508C120.976 93.508 121.683 92.7653 121.683 91.8482Z" fill="#2B2B5C"/>
<path d="M129.996 91.8482C129.996 90.9322 129.289 90.1884 128.415 90.1884C127.543 90.1884 126.834 90.931 126.834 91.8482C126.834 92.7642 127.542 93.508 128.415 93.508C129.289 93.508 129.996 92.7653 129.996 91.8482Z" fill="#2B2B5C"/>
<path d="M122.73 87.6511L124.751 96.0697H128.001L125.365 98.2366L123.566 97.9731L122.73 87.6511Z" fill="#FF9996"/>
<path d="M128.044 99.2183H118.738V100.556C118.738 103.254 120.821 105.441 123.39 105.441C125.96 105.441 128.043 103.254 128.043 100.556V99.2183H128.044Z" fill="white"/>
<path d="M150.965 166.208C150.965 166.208 159.158 176.881 166.288 170.828C173.42 164.774 170.233 153.943 166.288 149.96C162.343 145.978 151.746 146.741 149.042 151.21C146.34 155.679 150.965 166.208 150.965 166.208Z" fill="#F23B73"/>
<path d="M148.212 154.63C148.071 159.599 150.964 166.208 150.964 166.208C150.964 166.208 158.786 176.389 165.797 171.207C167.366 162.836 163.372 154.739 163.372 154.739C163.372 154.739 154.432 153.115 148.212 154.63Z" fill="#B52C56"/>
<path d="M99.884 156.439C99.884 156.439 97.9617 156.332 91.59 156.439C85.2173 156.545 79.4503 158.258 77.6262 162.465C75.802 166.673 75.561 170.399 82.5073 174.864C88.9816 179.026 97.6326 176.005 101.416 172.444C105.474 168.623 105.75 164.722 105.75 164.722C105.75 164.722 105.448 157.181 99.884 156.439Z" fill="#F23B73"/>
<path d="M92.487 171.478C87.4909 173.364 80.3718 170.832 76.574 167.429C76.8016 169.816 78.3792 172.209 82.5083 174.863C88.9826 179.025 97.6336 176.004 101.417 172.443C105.475 168.622 105.751 164.72 105.751 164.72C105.751 164.72 105.709 163.792 105.422 162.56L101.323 164.608C101.323 164.61 99.0963 168.983 92.487 171.478Z" fill="#B52C56"/>
<path d="M96.0046 319.339L92.6665 333.356H125.895L114.818 319.339H96.0046Z" fill="#F23B73"/>
<path d="M132.779 319.339L131.054 333.356H173.081L151.536 319.339H132.779Z" fill="#F23B73"/>
<path d="M131.054 333.356H173.081L165.002 328.099H131.701L131.054 333.356Z" fill="#E9E5F6"/>
<path d="M92.6665 333.356H125.895L121.741 328.099H93.9183L92.6665 333.356Z" fill="#E9E5F6"/>
<path d="M102.76 171.023L105.751 137.058L111.908 142.474L118.041 137.058L125.476 142.155L134.73 135.465L141.71 141.677L153.673 133.712L156.73 139.607L166.453 133.712L156.036 166.635L149.583 172.261L146.869 164.582L136.096 172.687L130.633 166.404L121.682 173.377L115.755 167.96L108.331 175.766L102.76 171.023Z" fill="white"/>
<path d="M149.583 172.261L156.73 139.607L153.673 133.712L146.869 164.582L149.583 172.261Z" fill="#E9E5F6"/>
<path d="M136.096 172.687L141.71 141.677L134.73 135.465L130.633 166.404L136.096 172.687Z" fill="#E9E5F6"/>
<path d="M121.682 173.377L125.476 142.155L118.041 137.058L115.755 167.96L121.682 173.377Z" fill="#E9E5F6"/>
<path d="M108.331 175.766L111.908 142.474L105.752 137.058L102.76 171.023L108.331 175.766Z" fill="#E9E5F6"/>
<path d="M103.172 165.73C103.172 165.73 99.682 167.243 98.0888 165.73C96.4956 164.217 95.8886 159.597 96.4956 157.367C97.1025 155.136 101.351 148.286 103.172 146.693C104.993 145.1 110 146.402 111.011 147.251C112.021 148.1 111.668 149.322 111.011 149.852C110.353 150.383 105.093 150.383 105.093 150.383C105.093 150.383 111.112 151.255 111.643 152.226C112.174 153.197 111.921 154.737 110.757 155.056C109.594 155.374 105.75 155.268 105.75 155.268C105.75 155.268 110.554 155.969 110.757 156.389C110.959 156.808 111.364 158.294 110.201 158.984C109.037 159.674 105.75 159.515 105.75 159.515C105.75 159.515 108.734 159.834 109.24 160.683C109.745 161.532 109.645 162.966 108.279 163.391C106.914 163.816 105.245 163.55 105.245 163.55L103.172 165.73Z" fill="#FDC683"/>
<path d="M156.73 164.442C156.73 164.442 158.442 165.409 160.824 162.706C163.206 160.002 163.818 156.96 164.75 154.19C165.681 151.42 165.029 149.121 163.892 148.175C162.755 147.229 156.044 145.32 155.029 147.281C154.422 148.455 155.296 149.408 155.94 149.8C156.585 150.191 159.36 151.181 159.36 151.181C159.36 151.181 155.009 150.902 153.721 151.352C152.434 151.801 151.918 153.514 153.12 154.236C154.322 154.956 157.712 155.581 157.712 155.581C157.712 155.581 152.751 155.046 152.442 156.083C152.134 157.119 151.876 158.155 152.862 158.606C153.85 159.057 156.767 159.777 156.767 159.777C156.767 159.777 153.248 159.236 152.819 160.138C152.389 161.039 152.622 162.346 153.536 162.706C154.45 163.066 157.055 162.952 157.055 162.952L156.73 164.442Z" fill="#FDC683"/>
<path d="M246.08 164.696C246.08 153.167 237.179 143.822 226.198 143.822C215.218 143.822 206.317 153.167 206.317 164.696C206.317 170.325 208.443 175.43 211.894 179.184H211.888L226.198 194.796L240.508 179.184H240.502C243.953 175.43 246.08 170.325 246.08 164.696Z" fill="#F23B73"/>
<path d="M226.198 176.861C232.598 176.861 237.785 171.415 237.785 164.696C237.785 157.977 232.598 152.53 226.198 152.53C219.798 152.53 214.61 157.977 214.61 164.696C214.61 171.415 219.798 176.861 226.198 176.861Z" fill="white"/>
<path d="M292.666 211.174C292.666 203.37 286.64 197.044 279.207 197.044C271.775 197.044 265.749 203.37 265.749 211.174C265.749 214.984 267.188 218.44 269.524 220.982H269.521L279.207 231.55L288.894 220.982H288.891C291.227 218.441 292.666 214.984 292.666 211.174Z" fill="#F23B73"/>
<path d="M287.052 211.174C287.052 206.625 283.54 202.939 279.209 202.939C274.878 202.939 271.365 206.625 271.365 211.174C271.365 215.722 274.878 219.408 279.209 219.408C283.54 219.408 287.052 215.722 287.052 211.174Z" fill="white"/>
<path d="M261.845 255.109C261.845 247.305 255.819 240.979 248.387 240.979C240.954 240.979 234.928 247.305 234.928 255.109C234.928 258.919 236.368 262.375 238.704 264.917H238.7L248.387 275.485L258.073 264.917H258.07C260.405 262.376 261.845 258.919 261.845 255.109Z" fill="#F23B73"/>
<path d="M256.23 255.109C256.23 250.561 252.718 246.874 248.387 246.874C244.056 246.874 240.543 250.562 240.543 255.109C240.543 259.656 244.056 263.343 248.387 263.343C252.718 263.343 256.23 259.657 256.23 255.109Z" fill="white"/>
<path d="M294.839 43.6013C292.693 43.6013 290.686 44.2245 288.972 45.3068C286.743 39.0647 281.008 34.6194 274.284 34.6194C267.064 34.6194 260.988 39.7417 259.164 46.7124C257.881 46.115 256.465 45.7777 254.972 45.7777C249.245 45.7777 244.602 50.6517 244.602 56.6642C244.602 62.6768 249.245 67.5508 254.972 67.5508H294.839C301.139 67.5508 306.245 62.1895 306.245 55.576C306.245 48.9626 301.139 43.6013 294.839 43.6013Z" fill="white"/>
<path d="M11.4056 113.373C13.5522 113.373 15.5582 113.996 17.273 115.078C19.5021 108.836 25.2356 104.391 31.961 104.391C39.1806 104.391 45.2566 109.513 47.0807 116.484C48.3637 115.887 49.7796 115.549 51.2735 115.549C57.0003 115.549 61.6426 120.423 61.6426 126.436C61.6426 132.448 57.0003 137.322 51.2735 137.322H11.4056C5.10648 137.322 0 131.961 0 125.348C0 118.734 5.10537 113.373 11.4056 113.373Z" fill="white"/>
<path d="M288.369 333.9H0V340.291H288.369V333.9Z" fill="#202045"/>
</svg>
