<?xml version="1.0" encoding="utf-8"?>
<svg viewBox="77.869 48.009 317.916 321.429" xmlns="http://www.w3.org/2000/svg">
  <g transform="matrix(1, 0, 0, 1, -294.7312927246094, -86.03561401367188)">
    <path style="fill:#CFEEF3;" d="M662.536,319.457c0,64.497-58.722,116.782-131.159,116.782s-134.284-52.421-131.159-116.782 c5.004-103.08,92.628-69.126,129.027-79.645C600.054,219.348,662.536,254.96,662.536,319.457z"/>
    <g>
      <path style="fill:#CFEEF3;" d="M688.484,350.957c-17.549,36.729-56.235,62.396-96.897,64.288 C606.786,376.893,647.24,350.053,688.484,350.957z"/>
      <g>
        <path style="fill:#ADD3D4;" d="M675.949,371.066c4.834-6.161,9.028-12.82,12.43-19.898 c-11.999,4.827-23.363,10.625-34.289,17.106C661.402,368.963,668.675,370.003,675.949,371.066z"/>
        <path style="fill:#ADD3D4;" d="M664.335,383.746c2.933-2.762,5.726-5.671,8.352-8.722c-7.883-1.425-15.752-2.937-23.593-3.73 c-4.973,3.083-9.856,6.306-14.667,9.643C644.408,380.754,654.401,382.016,664.335,383.746z"/>
        <path style="fill:#ADD3D4;" d="M635.724,403.611c8.745-4.328,16.966-9.735,24.386-16.073 c-10.357-1.789-20.744-3.187-31.389-2.549c-4.72,3.398-9.377,6.898-13.987,10.476 C621.914,397.6,628.844,400.536,635.724,403.611z"/>
        <path style="fill:#ADD3D4;" d="M610.988,398.401c-6.321,4.989-12.561,10.112-18.758,15.316c-0.213,0.51-0.439,1.014-0.643,1.528 c13.414-0.624,26.6-3.86,38.892-9.206C624.125,403.127,617.735,400.3,610.988,398.401z"/>
        <path style="fill:#ADD3D4;" d="M649.545,366.192c9.37-5.614,19.067-10.703,29.116-14.912 c-8.966,0.747-17.797,2.771-26.243,5.881C651.444,360.163,650.53,363.188,649.545,366.192z"/>
        <path style="fill:#ADD3D4;" d="M610.568,393.196c4.449-3.45,8.952-6.822,13.51-10.103c0.011-0.065,0.01-0.13,0.03-0.195 c1.353-4.351,2.715-8.7,4.074-13.049c-5.568,3.884-10.769,8.29-15.496,13.146C612.091,386.421,611.415,389.832,610.568,393.196z "/>
        <path style="fill:#ADD3D4;" d="M606.093,395.241c0.683-2.301,1.261-4.623,1.793-6.954c-4.205,4.961-7.942,10.31-11.096,15.997 c3.132-2.616,6.307-5.177,9.501-7.712C606.056,396.173,605.956,395.703,606.093,395.241z"/>
        <path style="fill:#ADD3D4;" d="M628.948,379.613c0.187-0.131,0.369-0.267,0.556-0.398c5.096-3.549,10.297-7.005,15.603-10.311 c0.025-0.1,0.044-0.199,0.085-0.303c1.32-3.332,2.479-6.71,3.68-10.065c-5.631,2.308-11.062,5.114-16.227,8.348 C631.414,371.128,630.184,375.371,628.948,379.613z"/>
      </g>
    </g>
    <g>
      <path style="fill:#CFEEF3;" d="M385.063,349.142c16.183,37.351,53.897,64.426,94.462,67.816 C465.75,378.072,426.312,349.759,385.063,349.142z"/>
      <g>
        <path style="fill:#ADD3D4;" d="M396.848,369.699c-4.604-6.335-8.55-13.144-11.688-20.342 c11.813,5.265,22.956,11.479,33.635,18.358C411.463,368.134,404.156,368.905,396.848,369.699z"/>
        <path style="fill:#ADD3D4;" d="M407.987,382.799c-2.83-2.868-5.513-5.879-8.025-9.024c7.931-1.133,15.85-2.354,23.715-2.858 c4.856,3.264,9.617,6.665,14.302,10.177C428.011,380.543,417.978,381.436,407.987,382.799z"/>
        <path style="fill:#ADD3D4;" d="M435.847,403.705c-8.579-4.648-16.595-10.354-23.777-16.961 c10.416-1.407,20.848-2.42,31.462-1.39c4.592,3.57,9.117,7.239,13.591,10.984C449.869,398.207,442.835,400.886,435.847,403.705z "/>
        <path style="fill:#ADD3D4;" d="M460.758,399.411c6.133,5.219,12.18,10.568,18.18,15.996c0.194,0.518,0.401,1.03,0.586,1.551 c-13.382-1.118-26.44-4.838-38.526-10.633C447.455,403.649,453.945,401.06,460.758,399.411z"/>
        <path style="fill:#ADD3D4;" d="M423.414,365.802c-9.156-5.955-18.659-11.399-28.546-15.975 c8.933,1.077,17.682,3.425,26.009,6.844C421.738,359.707,422.54,362.764,423.414,365.802z"/>
        <path style="fill:#ADD3D4;" d="M461.369,394.224c-4.319-3.612-8.695-7.148-13.129-10.595c-0.008-0.065-0.005-0.13-0.023-0.196 c-1.192-4.398-2.393-8.794-3.59-13.19c5.421,4.086,10.456,8.682,15.001,13.709C460.097,387.398,460.647,390.831,461.369,394.224 z"/>
        <path style="fill:#ADD3D4;" d="M465.766,396.432c-0.598-2.325-1.089-4.667-1.535-7.015c4.019,5.112,7.556,10.595,10.499,16.395 c-3.034-2.729-6.112-5.406-9.21-8.057C465.768,397.366,465.886,396.899,465.766,396.432z"/>
        <path style="fill:#ADD3D4;" d="M443.502,379.973c-0.182-0.137-0.359-0.281-0.541-0.418c-4.962-3.734-10.032-7.38-15.212-10.879 c-0.021-0.101-0.037-0.201-0.074-0.306c-1.197-3.379-2.23-6.797-3.307-10.194c5.542,2.514,10.866,5.518,15.908,8.94 C441.351,371.402,442.424,375.688,443.502,379.973z"/>
      </g>
    </g>
    <g>
      <path style="fill:#CFEEF3;" d="M665.635,329.24c-10.358,29.503-37.775,52.31-68.67,57.124 C605.394,355.816,634.063,331.968,665.635,329.24z"/>
      <g>
        <path style="fill:#ADD3D4;" d="M657.729,345.635c3.181-5.106,5.832-10.538,7.844-16.225c-8.763,4.68-16.962,10.05-24.768,15.905 C646.445,345.235,652.086,345.426,657.729,345.635z"/>
        <path style="fill:#ADD3D4;" d="M649.91,356.282c2.011-2.352,3.903-4.806,5.656-7.353c-6.138-0.435-12.273-0.938-18.326-0.894 c-3.542,2.766-7.004,5.633-10.402,8.579C634.444,355.647,642.18,355.783,649.91,356.282z"/>
        <path style="fill:#ADD3D4;" d="M629.707,373.822c6.319-4.03,12.149-8.84,17.291-14.295c-8.058-0.509-16.106-0.715-24.182,0.654 c-3.323,2.986-6.589,6.045-9.813,9.159C618.662,370.376,624.198,372.044,629.707,373.822z"/>
        <path style="fill:#ADD3D4;" d="M610.385,371.894c-4.414,4.334-8.755,8.763-13.056,13.25c-0.12,0.407-0.251,0.811-0.364,1.22 c10.192-1.588,19.994-5.152,28.938-10.253C620.809,374.414,615.695,372.784,610.385,371.894z"/>
        <path style="fill:#ADD3D4;" d="M637.161,344.102c6.69-5.063,13.674-9.753,20.999-13.801c-6.785,1.313-13.361,3.591-19.554,6.665 C638.112,339.34,637.664,341.726,637.161,344.102z"/>
        <path style="fill:#ADD3D4;" d="M609.633,367.953c3.112-3.004,6.271-5.952,9.48-8.835c0.003-0.051-0.003-0.1,0.007-0.151 c0.673-3.435,1.353-6.869,2.03-10.303c-3.93,3.427-7.537,7.224-10.745,11.323C610.235,362.653,610.001,365.314,609.633,367.953z "/>
        <path style="fill:#ADD3D4;" d="M606.385,369.885c0.331-1.814,0.579-3.635,0.793-5.459c-2.8,4.137-5.21,8.531-7.148,13.136 c2.175-2.257,4.388-4.476,6.617-6.677C606.434,370.601,606.318,370.25,606.385,369.885z"/>
        <path style="fill:#ADD3D4;" d="M622.544,356.057c0.132-0.115,0.26-0.235,0.392-0.35c3.598-3.132,7.283-6.203,11.061-9.167 c0.011-0.079,0.017-0.156,0.04-0.238c0.732-2.654,1.337-5.33,1.977-7.992c-4.109,2.229-8.024,4.822-11.7,7.72 C623.724,349.373,623.136,352.715,622.544,356.057z"/>
      </g>
    </g>
    <g>
      <g>
        <path style="fill:#423E82;" d="M650.72,314.342l-68.846-4.772l7.406-106.856c0.4-5.768,5.4-10.119,11.167-9.72l44.521,3.086 c12.433,0.862,21.813,11.639,20.952,24.072l-5.971,86.157C659.619,311.076,655.487,314.672,650.72,314.342z"/>
        <path style="fill:#5563AD;" d="M665.92,220.149l-5.974,86.157c-0.327,4.768-4.46,8.368-9.228,8.041l-11.079-0.767 c3.02-1.178,5.245-4.011,5.488-7.461l5.974-86.157c0.86-12.435-8.517-23.206-20.953-24.075l-33.836-2.347 c1.29-0.449,2.683-0.645,4.133-0.542l44.523,3.085C657.402,196.943,666.78,207.723,665.92,220.149z"/>
        <g>
          <path style="fill:#5563AD;" d="M673.021,202.746c0,0-43.892-5.197-54.004-6.838c-6.969-1.131-24.637-2.963-34.946-3.992 c-4.56-0.455-8.206-4.272-8.771-9.181l0,0c-0.747-6.491,4.1-12.156,10.15-11.863l88.772,4.301L673.021,202.746z"/>
          <path style="fill:#423E82;" d="M599.3,186.951c9.224,0.876,18.412,1.942,27.658,2.568c9.532,0.645,19.057,1.226,28.574,2.108 c5.944,0.551,11.922,1.241,17.901,1.661l-0.411,9.458c0,0-43.892-5.197-54.004-6.838c-6.969-1.131-24.637-2.963-34.946-3.992 c-4.317-0.431-7.811-3.877-8.651-8.408C583.154,186.018,591.293,186.19,599.3,186.951z"/>
          <path style="fill:#6B75CD;" d="M674.203,175.078c-2.964-0.138-5.625,5.923-5.944,13.538s1.824,13.9,4.788,14.038 c2.964,0.138,5.625-5.923,5.944-13.538C679.31,181.501,677.167,175.216,674.203,175.078z"/>
        </g>
      </g>
      <g>
        <path style="fill:#24160A;" d="M600.717,310.968c-2.75,20.835-9.913,61.086-25.614,78.094c0,0-3.945,6.819-12.262,5.591 c-8.988-1.327-9.751-4.941-10.778-9.04v0c0,0-5.133-20.788,5.465-59.024c4.327-15.611,5.209-18.966,7.247-24.316 c2.876-7.548,15.409-10.441,23.878-8.077l0,0C596.558,296.402,601.7,303.522,600.717,310.968z"/>
      </g>
      <g>
        <path style="fill:#24160A;" d="M595.109,311.799c-3.241,20.47-2.973,66.601,2.554,88.128c2.122,8.263,17.978,7.169,20.786,2.954 c5.702-8.558,13.097-33.503,11.766-67.41c-0.423-10.77-0.285-17.402-0.601-23.017c-0.446-7.923-10.113-14.88-18.049-14.927l0,0 C604.159,297.482,596.268,304.483,595.109,311.799z"/>
      </g>
      <g>
        <path style="fill:#DD4656;" d="M580.173,210.37c-8.625,6.564-41.095,35.563-43.047,44.346 c-1.952,8.783,1.128,14.585,10.93,10.799c9.802-3.787,29.145-21.108,37.234-28.853c3.877-3.712,11.086-10.524,6.787-20.37 C587.779,206.446,580.173,210.37,580.173,210.37z"/>
        <path style="fill:#B52F3E;" d="M587.7,210.732c-9.267,6.007-16.952,15.643-22.843,24.234 c-6.27,9.145-10.568,18.809-13.656,29.061c10.348-5.611,26.794-20.38,34.089-27.364c3.877-3.712,11.086-10.524,6.787-20.37 C590.812,213.394,589.26,211.695,587.7,210.732z"/>
        <path style="fill:#FCCCA6;" d="M547.518,255.646c1.307,2.664,1.259,4.481-0.68,6.727c-3.488,4.041-8.114,5.498-18.64,0.349 c-13.097-6.406-36.024-30.208-36.024-30.208l3.837-6.265c0,0,34.751,14.542,41.698,19.797 C543.112,250.133,545.498,251.529,547.518,255.646z"/>
        <path style="fill:#DD4656;" d="M547.518,255.646c-2.02-4.117-4.406-5.513-9.809-9.599c-4.13-3.123-18.083-9.528-28.723-14.21 c-1.892,3.811-3.775,7.674-5.99,11.269c7.715,7.215,17.959,16.074,25.202,19.617c10.526,5.149,15.152,3.692,18.64-0.349 C548.777,260.127,548.825,258.31,547.518,255.646z"/>
        <g>
          <g>
            <path style="fill:#FCCCA6;" d="M487.39,230.782c-0.331-0.873-1.189-1.442-2.116-1.57c-3.043-0.422-7.379-1.925-8.697-2.594 c-1.507-0.765-2.903-1.053-3.774-0.062s2.37,5.254,9.53,6.42C484.277,233.292,488.358,233.335,487.39,230.782z"/>
            <g>
              <path style="fill:#FCCCA6;" d="M487.417,227.242c-0.117-0.999-0.877-1.819-1.83-2.197c-3.126-1.242-7.339-3.954-8.562-5 c-1.398-1.196-2.807-1.864-4.002-1.059c-1.195,0.805,1.106,6.11,8.416,9.213 C483.425,229.042,487.759,230.163,487.417,227.242z"/>
              <path style="fill:#ECA06E;" d="M481.438,228.2c1.689,0.715,5.08,1.633,5.834,0.1c-5.984,0.75-13.06-5.968-14.543-8.637 C472.659,221.378,475.254,225.579,481.438,228.2z"/>
            </g>
            <g>
              <path style="fill:#FCCCA6;" d="M489.668,224.285c0.034-1.005-0.595-1.93-1.48-2.447c-2.905-1.697-6.662-5.01-7.715-6.228 c-1.203-1.392-2.496-2.264-3.798-1.648c-1.302,0.617,0.177,6.207,6.938,10.372 C485.451,225.466,489.569,227.224,489.668,224.285z"/>
              <path style="fill:#ECA06E;" d="M483.613,224.335c1.562,0.961,4.777,2.376,5.753,0.975 c-6.029-0.156-12.017-7.859-13.083-10.721C475.957,216.274,477.893,220.816,483.613,224.335z"/>
            </g>
            <g>
              <path style="fill:#FCCCA6;" d="M492.702,221.094c0.06-1.004-0.545-1.944-1.417-2.484c-2.86-1.771-6.532-5.178-7.553-6.423 c-1.167-1.422-2.437-2.327-3.755-1.744c-1.318,0.583,0.018,6.209,6.671,10.545 C488.456,222.167,492.527,224.03,492.702,221.094z"/>
              <path style="fill:#ECA06E;" d="M486.647,220.99c1.537,1,4.715,2.497,5.727,1.121c-6.023-0.31-11.812-8.163-12.805-11.051 C479.199,212.736,481.018,217.326,486.647,220.99z"/>
            </g>
            <path style="fill:#FCCCA6;" d="M487.457,235.84c5.184,3.255,11.149,2.518,14.161-1.543c3.011-4.061,1.575-11.014-3.251-12.521 c-3.522-1.1-5.803-2.986-7.976-3.432c-1.858-0.381-3.373,2.285-4.732,4.118c-2.32,3.129-5.342,9.531-3.118,10.526 C483.769,233.537,486.475,235.223,487.457,235.84z"/>
          </g>
          <path style="fill:#ECA06E;" d="M489.531,220.121c-2.9,2.978-5.562,7.89-5.133,10.093c0,0-1.416-2.502,0.686-6.441 C486.992,220.195,489.531,220.121,489.531,220.121z"/>
          <path style="fill:#ECA06E;" d="M482.334,232.978c0.091,0.011,0.182,0.022,0.275,0.048c0,0,0.007-0.009,0.016-0.002 c1.263,0.584,3.868,2.218,4.834,2.821c3.821,2.395,8.075,2.625,11.243,0.946c-4.547,1.843-9.854-1.809-12.98-3.788 c-1.057-0.671-1.868-1.159-2.325-1.173c-0.368-0.018-0.936-0.129-1.628-0.302c-2.669-0.708-7.166-2.516-9.042-4.161 C473.218,228.974,476.454,232.024,482.334,232.978z"/>
          <path style="fill:#ECA06E;" d="M497.111,228.643c-1.462-1.212-3.114-4.416-2.161-8.274c-0.649-0.326-0.831-0.426-1.403-0.722 C492.035,226.298,497.111,228.643,497.111,228.643z"/>
          <path style="fill:#FCCCA6;" d="M495.319,210.985c-1.959-0.234-3.191,3.111-2.199,5.348c0.991,2.237,2.024,4.299,2.024,4.299 l4.226,4.665l3.291,7.05c0,0,3.699-4.988-0.543-10.755c-2.501-3.4-4.4-5.384-4.693-7.014 C497.132,212.948,496.455,211.121,495.319,210.985z"/>
        </g>
      </g>
      <path style="fill:#DD4656;" d="M631.876,322.368l-72.048-10.786c-0.625-0.094-1.043-0.662-0.925-1.29 c2.117-11.272,17.824-96.646,19.612-98.62c1.897-2.094,24.285-11.519,26.958-11.932c2.67-0.413,16.775,0.988,20.349,4.063 c3.586,3.086,18.271,13.147,19.526,15.3c1.182,2.029-10.758,90.996-12.211,102.32 C633.056,322.049,632.494,322.46,631.876,322.368z"/>
      <path style="fill:#FCCCA6;" d="M631.302,208.013c-0.137,0.068-0.342,0.154-0.419,0.257c-4.2,5.132-11.359,15.671-19.443,13.866 c-7.45-1.668-12.942-12.035-14.293-19.357c3.37-1.369,6.261-2.472,7.664-2.874c0.282-0.068,0.505-0.111,0.659-0.137 c2.523-0.359,15.226,0.881,19.657,3.541c0.137,0.085,0.257,0.162,0.376,0.248c0.111,0.077,0.214,0.163,0.316,0.248 C626.88,204.72,628.924,206.251,631.302,208.013z"/>
      <path style="fill:#B52F3E;" d="M603.679,199.645c-0.944,2.111-2.852,3.524-4.067,5.447c-1.178,1.847-2.337,3.845-3.45,5.748 c-3.403,5.833-6.367,11.93-8.77,18.254c-2.403,6.304-4.254,12.816-5.582,19.432c-1.365,6.804-3.151,13.909-4.133,20.93 c-0.346,2.46,0.065,7.171-2.637,8.491c-2.066,1.008-5.105-0.782-6.274-2.469c-0.907-1.31-1.131-2.95-1.272-4.533 c-0.159-1.838-0.224-3.666-0.206-5.485c2.524-13.353,5.161-27.093,7.265-37.412c0.935-2.695,1.954-5.353,3.085-7.972 c1.739-4.052,3.712-7.991,5.872-11.827C589.599,205.261,599.444,201.115,603.679,199.645z"/>
      <g>
        <path style="fill:#5563AD;" d="M597.813,193.755c-1.656,0.393-3.274,0.947-4.816,1.656c-2.508,1.154-3.088,2.626-4.696,4.765 c-4.542,6.044-8.614,12.444-12.023,19.195c-3.336,6.604-6.023,13.522-8.072,20.63c-2.741,9.507-5.336,19.186-5.029,29.153 c0.049,1.574,0.176,3.217,0.998,4.56c1.068,1.747,4.003,3.693,6.123,2.817c2.777-1.149,2.641-5.838,3.127-8.253 c1.386-6.892,3.591-13.829,5.353-20.482c1.715-6.476,3.938-12.815,6.704-18.917c2.774-6.118,6.087-11.981,9.83-17.558 c1.224-1.823,2.495-3.733,3.773-5.496c1.381-1.905,3.476-3.216,4.506-5.396c0.643-1.36,1.56-1.814,2.433-3.03 c0.534-0.744,0.81-1.737,0.481-2.592c-0.583-1.515-2.581-1.811-4.201-1.715C600.795,193.184,599.289,193.406,597.813,193.755z"/>
      </g>
      <path style="fill:#B52F3E;" d="M640.012,214.473c-0.327,0.617-0.626,1.234-0.851,1.889c-0.72,2.057-1.384,4.254-2.029,6.358 c-1.973,6.414-3.459,12.987-4.347,19.644c-0.888,6.638-1.188,13.351-0.963,20.046c0.234,6.881,0.122,14.155,0.776,21.158 c0.234,2.45,1.72,6.9-0.608,8.807c-1.776,1.449-5.152,0.43-6.676-0.935c-1.178-1.047-1.776-2.59-2.272-4.076 c-3.17-9.452-3.478-19.475-3.59-29.367c-0.094-7.396,0.486-14.791,1.776-22.084c1.318-7.442,3.366-14.744,5.974-21.841 c0.711-1.935,1.524-4.778,2.646-7.143C632.897,209.2,636.852,212.052,640.012,214.473z"/>
      <path style="fill:#B52F3E;" d="M638.535,280.117c-1.58,12.286-3.104,23.851-4.151,31.808c-0.159,0.14-0.318,0.29-0.486,0.43 c-0.131,0.112-0.271,0.234-0.402,0.346c-0.346,0.299-0.692,0.598-1.038,0.898c-0.084,0.075-0.168,0.15-0.262,0.224 c-2.749,2.356-5.451,4.572-7.854,6.498c0.122,0.318,0.215,0.636,0.28,0.963l-20.709-3.104c1.393-0.748,3.216-1.599,5.628-2.964 c2.019-1.141,3.852-1.459,5.423-1.384c1.646-2.739,3.572-5.9,5.572-9.135c0.094-0.14,0.178-0.28,0.271-0.421 c0.168-0.271,0.327-0.533,0.495-0.804c0.187-0.29,0.365-0.58,0.552-0.879c0.159-0.262,0.327-0.524,0.495-0.785 c0.178-0.29,0.365-0.58,0.542-0.87c0.168-0.262,0.327-0.514,0.496-0.776c0.187-0.29,0.374-0.58,0.552-0.879 c0.168-0.252,0.337-0.514,0.496-0.767c0.187-0.29,0.365-0.561,0.542-0.841c0.168-0.262,0.327-0.514,0.495-0.767 c0.178-0.281,0.365-0.561,0.542-0.842c0.159-0.243,0.327-0.495,0.486-0.739c0.178-0.271,0.355-0.542,0.533-0.813 c0.159-0.243,0.318-0.486,0.477-0.72c0.178-0.262,0.346-0.524,0.514-0.776c0.159-0.234,0.318-0.467,0.468-0.701 c0.178-0.252,0.337-0.496,0.505-0.739c0.159-0.224,0.308-0.449,0.458-0.664c0.168-0.243,0.327-0.477,0.486-0.711 c0.15-0.206,0.29-0.411,0.439-0.617c0.159-0.224,0.309-0.449,0.468-0.664c0.14-0.196,0.281-0.393,0.411-0.58 c0.159-0.215,0.309-0.411,0.458-0.617c0.121-0.178,0.253-0.355,0.383-0.524c0.15-0.206,0.299-0.393,0.449-0.589 c0.112-0.15,0.224-0.299,0.337-0.439c0.15-0.196,0.29-0.365,0.44-0.552c0.093-0.122,0.196-0.253,0.29-0.365 c0.159-0.187,0.308-0.355,0.449-0.533c0.075-0.084,0.149-0.178,0.224-0.252c0.206-0.243,0.411-0.458,0.598-0.645 c0.299-0.299,0.58-0.589,0.86-0.879C636.805,281.866,637.712,280.931,638.535,280.117z"/>
      <path style="fill:#B52F3E;" d="M634.048,314.423c-0.017-0.137-0.034-0.282-0.051-0.419c-0.009-0.026-0.009-0.043-0.009-0.068 c-0.077-0.599-0.145-1.189-0.214-1.788c-0.008-0.051-0.017-0.103-0.017-0.163c-0.068-0.573-0.137-1.146-0.197-1.728 c-0.009-0.068-0.017-0.137-0.026-0.205c-0.069-0.573-0.128-1.146-0.188-1.711c-0.008-0.06-0.017-0.12-0.026-0.18 c-0.06-0.565-0.12-1.121-0.171-1.677c-0.009-0.068-0.017-0.145-0.026-0.214c-0.051-0.547-0.111-1.086-0.163-1.617 c-0.008-0.086-0.017-0.163-0.026-0.24c-0.051-0.53-0.094-1.052-0.146-1.565c-0.008-0.077-0.008-0.145-0.017-0.222 c-0.051-0.513-0.094-1.018-0.137-1.523c-0.008-0.068-0.008-0.137-0.017-0.205c-0.043-0.496-0.077-0.992-0.111-1.471 c-0.009-0.06-0.017-0.12-0.017-0.18c-0.034-0.479-0.068-0.949-0.094-1.403c-0.009-0.06-0.009-0.12-0.017-0.18 c-0.026-0.462-0.051-0.898-0.077-1.334c0-0.043,0-0.094-0.009-0.137c-0.017-0.436-0.034-0.855-0.051-1.257 c0-0.043,0-0.077-0.008-0.12c-0.009-0.402-0.017-0.796-0.026-1.163v-0.094c-0.008-0.376-0.008-0.736-0.008-1.069 c0.008-0.017,0.008-0.043,0.008-0.06c0-0.342,0.008-0.667,0.026-0.967v-0.026c0.017-0.308,0.034-0.59,0.06-0.847 c0.154-1.54,0.274-2.857,0.393-4.046c-0.205-0.402-0.411-0.821-0.607-1.266c-4.251-9.615-5.663-35.541-5.902-46.738 c-0.111-5.363-0.385-15.277,9.614-19.195c4.653-1.822,7.707-1.035,9.632,0.334C645.63,226.609,637.093,291.293,634.048,314.423z"/>
      <g>
        <g>
          <g>
            <path style="fill:#FCCCA6;" d="M610.702,213.879l6.029,0.903c4.008,0.6,7.744-2.163,8.344-6.171l3.52-23.514l-20.544-3.076 l-3.52,23.514C603.931,209.543,606.694,213.279,610.702,213.879z"/>
          </g>
          <path style="fill:#ECA06E;" d="M608.055,182.022l-3.101,20.712c10.177,3.401,17.48-1.471,22.556-10.393l1.085-7.244 L608.055,182.022z"/>
        </g>
        <g>
          <g>
            <path style="fill:#ECA06E;" d="M599.823,167.062c-0.963,3.846-2.598,9.577-6.575,6.767c-3.749-2.649-4.925-7.206-3.279-12.029 c1.646-4.823,4.26-6.785,7.714-4.479C600.835,159.424,600.921,162.539,599.823,167.062z"/>
          </g>
          <path style="fill:#FCCCA6;" d="M603.303,194.087c-10.748-3.717-11.128-14.649-9.568-21.838 c1.221-5.624,4.108-15.989,5.935-22.407c1.891-6.639,7.582-11.776,14.473-12.186c5.694-0.339,12.069,1.18,16.949,4.548 c9.928,6.851,11.297,16.333,5.026,31.696C633.245,180.943,628.018,201.14,603.303,194.087z"/>
          <path style="fill:#513217;" d="M596.517,161.169c2.835,0.612,2.634-2.905,3.882-4.157c2.191-2.199,4.909-2.201,7.975-2.794 c2.997-0.579,6.229-1.902,7.405-4.718c-0.586,1.647-1.179,3.405-0.792,5.113c0.722,3.17,5.664,3.029,8.193,4.134 c3.076,1.343,6.068,3.09,7.304,6.395c1.222,3.27-0.645,9.123,3.377,10.665c-0.22,0.518-1.962,4.87-0.29,4.46 c5.088-1.63,17.963-21.284,7.987-31.238c-1.713-1.666-3.787-1.732-3.787-1.732s-0.677-7.765-11.045-10.176 c-10.369-2.41-23.013-4.365-27.953,12.247c-1.231,4.077-1.86,6.919-2.386,10.119 C596.134,161.024,596.103,161.079,596.517,161.169z"/>
          <path style="fill:#F98495;" d="M618.674,181.217c-0.194,1.294,0.698,2.499,1.992,2.693c1.294,0.194,2.5-0.698,2.693-1.992 c0.194-1.294-0.698-2.499-1.992-2.693C620.074,179.031,618.868,179.923,618.674,181.217z"/>
          <g>
            <path style="fill:#FCCCA6;" d="M632.773,178.288c-1.418,3.715-4.501,8.354,1.434,9.026c5.596,0.634,9.702-2.092,11.021-7.068 c1.32-4.976-0.178-8.407-5.248-9.095C635.668,170.565,634.477,173.945,632.773,178.288z"/>
            <g>
              <path style="fill:#ECA06E;" d="M635.127,183.666c0.098-1.792,1.361-1.165,2.494-1.874c1.104-0.69,1.463-1.973,1.043-3.14 c-0.168-0.477-0.316-0.889,0.208-1.951c0.649-1.316,2.395,0.361,3.246,0.842c0.685-1.425-1.056-3.097-2.452-3.262 c-0.571-0.068-1.648,0.05-2.421,1.613c-0.805,1.616-0.586,2.553-0.289,3.373c0.151,0.43,0.164,0.465-0.245,0.918 c-0.201,0.221-0.499,0.294-0.962,0.383c-0.518,0.102-1.228,0.241-1.603,0.913 C633.679,182.317,633.918,183.645,635.127,183.666z"/>
            </g>
          </g>
          <path style="fill:#F98495;" d="M596.263,178.192c-0.194,1.294,0.698,2.499,1.992,2.693c1.294,0.194,2.5-0.698,2.693-1.992 c0.194-1.294-0.698-2.499-1.992-2.693C597.662,176.006,596.456,176.898,596.263,178.192z"/>
          <g>
            <path style="fill:none;stroke:#ECA06E;stroke-width:1.2355;stroke-linecap:round;stroke-linejoin:round;stroke-dasharray:19.765;" d=" M609.106,165.354c-3.142,4.99-6.683,12.5-5.385,13.955c1.104,1.237,3.261,1.514,4.048,0.732"/>
          </g>
          <path style="fill:none;stroke:#ECA06E;stroke-width:1.2355;stroke-linecap:round;stroke-linejoin:round;stroke-miterlimit:10;stroke-dasharray:63.8515;" d=" M615.81,184.598c-4.048,4.494-12.407,2.256-12.802-1.054"/>
          <path style="fill:none;stroke:#513217;stroke-width:1.266;stroke-linecap:round;stroke-linejoin:round;stroke-miterlimit:10;stroke-dasharray:81.2364;" d=" M620.155,175.499c0.364-2.431-0.1-4.515-1.036-4.656c-0.936-0.14-1.99,1.717-2.354,4.148"/>
          <path style="fill:none;stroke:#513217;stroke-width:1.2117;stroke-linecap:round;stroke-linejoin:round;stroke-miterlimit:10;stroke-dasharray:77.7495;" d=" M602.048,171.544c0.32-2.137-0.149-3.979-1.048-4.114c-0.899-0.135-1.887,1.489-2.207,3.626"/>
          <path style="fill:none;stroke:#513217;stroke-width:2.3957;stroke-linecap:round;stroke-linejoin:round;stroke-miterlimit:10;stroke-dasharray:72.7634;" d=" M617.974,163.71c0,0,4.889,0.619,6.806,4.449"/>
          <path style="fill:none;stroke:#513217;stroke-width:2.3957;stroke-linecap:round;stroke-linejoin:round;stroke-miterlimit:10;stroke-dasharray:72.7634;" d=" M599.424,162.876c0,0,2.868-2.219,5.857-1.22"/>
        </g>
      </g>
      <g>
        <path style="fill:#DD4656;" d="M644.695,218.876c1.8,1.093,2.978,2.954,3.495,4.996c3.25,12.818,10.654,51.769,7.098,59.544 c-3.743,8.182-9.7,10.951-15.231,2.017c-5.532-8.934-10.507-34.418-12.285-45.475c-0.852-5.3-2.491-15.082,6.878-20.34 C639.333,216.989,642.6,217.604,644.695,218.876z"/>
      </g>
      <g>
        <path style="fill:#5563AD;" d="M635.914,198.161c3.599-3.283,10.482,1.994,9.836,6.299c-0.358,2.384-1.986,4.243-2.759,6.466 c-0.715,2.057-1.382,4.252-2.028,6.351c-1.975,6.419-3.457,12.989-4.348,19.647c-0.889,6.641-1.189,13.352-0.964,20.047 c0.232,6.879,0.122,14.157,0.782,21.156c0.231,2.452,1.714,6.903-0.614,8.804c-1.777,1.451-5.149,0.434-6.675-0.931 c-1.174-1.049-1.77-2.586-2.271-4.079c-3.169-9.454-3.476-19.471-3.593-29.364c-0.088-7.397,0.49-14.796,1.779-22.082 c1.318-7.448,3.371-14.751,5.977-21.848C632.149,205.598,633.52,200.345,635.914,198.161z"/>
      </g>
    </g>
    <g>
      <g>
        <g>
          <path style="fill:#36210F;" d="M461.072,318.574c3.452,19.704,11.709,57.733,26.095,73.536c0,0,3.748,6.385,10.834,5.045 c7.659-1.448,8.126-4.892,8.795-8.801l0,0c0,0,3.043-20.564-7.045-58.999c-3.909-14.894-8.399-15.952-12.995-19.627 c-3.469-2.773-12.273-10.112-18.72-6.171C464.506,305.716,459.838,311.532,461.072,318.574z"/>
          <path style="fill:#24160A;" d="M498.27,324.392c-9.146,8.802-20.452,14.599-32.443,17.089 c-0.035-0.127-0.061-0.266-0.096-0.393c-0.948-8.291-2.08-15.713-3.18-21.196c-0.329-1.667-0.883-3.321-1.613-4.88 c0.501-5.398,4.182-9.674,7.104-11.458c6.442-3.94,15.249,3.404,18.714,6.179C490.778,312.947,494.726,314.158,498.27,324.392z "/>
        </g>
        <g>
          <path style="fill:#36210F;" d="M462.556,319.892c3.87,19.345,8.117,62.71,3.688,83.398c-1.7,7.941-16.823,7.511-19.657,3.61 c-5.752-7.92-15.229-37.579-18.193-62.574c-1.208-10.189-0.663-16.252,1.075-20.919c2.636-7.08,12.065-16.627,19.611-16.978 l0,0C456.123,306.101,461.172,312.978,462.556,319.892z"/>
          <path style="fill:#24160A;" d="M465.731,341.087c0.015,0.131,0.031,0.272,0.046,0.403c-12.466,2.591-25.666,1.606-37.926-3.286 c-0.367-6.652,0.266-11.148,1.617-14.794c2.639-7.083,12.065-16.628,19.615-16.982c3.521-0.159,6.542,1.477,8.861,4.018 c1.199,1.315,2.209,2.882,2.994,4.564c-0.111,1.143-0.077,2.341,0.137,3.567C462.145,324.715,463.689,332.624,465.731,341.087z "/>
        </g>
        <g>
          <g>
            <g>
              <path style="fill:#5563AD;" d="M384.315,223.816c0,0,45.169-15.369,55.481-19.344c7.106-2.739,25.344-8.671,35.995-12.095 c4.711-1.514,7.736-6.097,7.276-11.024v0c-0.608-6.514-6.937-10.911-13.254-9.206l-92.691,25.02L384.315,223.816z"/>
              <path style="fill:#423E82;" d="M458.663,191.1c-9.538,3.019-18.999,6.214-28.615,8.994c-9.913,2.866-19.833,5.667-29.68,8.76 c-6.15,1.932-12.306,4.008-18.521,5.82l2.467,9.141c0,0,45.169-15.369,55.481-19.344c7.106-2.739,25.344-8.672,35.995-12.095 c4.46-1.433,7.404-5.618,7.315-10.24C475.489,186.402,466.944,188.479,458.663,191.1z"/>
              <path style="fill:#6B75CD;" d="M377.121,197.071c3.095-0.83,7.205,4.466,9.179,11.828c1.974,7.362,1.064,14.003-2.031,14.833 c-3.096,0.83-7.205-4.466-9.179-11.828C373.116,204.542,374.025,197.901,377.121,197.071z"/>
            </g>
            <g>
              <path style="fill:#5563AD;" d="M479.548,299.784l-49.02,12.335c-4.865,1.224-9.802-1.727-11.026-6.593l-20.337-80.821 c-1.224-4.865,1.727-9.802,6.593-11.026l49.02-12.335c4.865-1.224,9.802,1.727,11.026,6.593l20.337,80.821 C487.365,293.623,484.414,298.56,479.548,299.784z"/>
              <path style="fill:#423E82;" d="M486.141,288.758l-20.338-80.821c-1.224-4.865-6.161-7.817-11.026-6.593l-46.38,11.671 c0.172,15.455,5.938,30.822,11.385,45.02c3.82,9.956,8.058,19.741,12.276,29.534c3.084,7.161,6.612,14.412,9.252,21.837 l38.239-9.622C484.414,298.56,487.365,293.623,486.141,288.758z"/>
            </g>
          </g>
          <path style="fill:#FCCCA6;" d="M426.965,221.817l0.002,0.01c4.212,4.743,11.393,14.405,18.984,12.376 c6.4-1.688,10.979-10.254,12.487-17.059c-0.37-0.156-0.741-0.322-1.109-0.467c-3.189-1.387-6.039-2.561-7.513-2.948 c-0.281-0.07-0.505-0.109-0.673-0.129c-1.215-0.107-4.732,0.236-8.559,0.948c-3.83,0.753-7.136,2.251-8.215,2.797 c-0.159,0.082-0.363,0.203-0.608,0.374c-0.327,0.227-0.712,0.527-1.148,0.889c-0.33,0.269-0.693,0.575-1.083,0.907 c-0.124,0.106-0.256,0.224-0.397,0.344c-0.38,0.33-0.775,0.684-1.187,1.061C427.63,221.206,427.297,221.507,426.965,221.817z"/>
          <path style="fill:#B52F3E;" d="M426.965,221.817l0.002,0.01c4.212,4.743,11.393,14.405,18.984,12.376 c6.4-1.688,10.979-10.254,12.487-17.059c-0.37-0.156-0.741-0.322-1.109-0.467c-1.675,6.528-5.918,14.104-11.748,15.651 c-6.873,1.85-13.447-6.415-17.635-11.409C427.63,221.206,427.297,221.507,426.965,221.817z"/>
        </g>
        <path style="fill:#36210F;" d="M453.782,215.466c0.458-0.474,0.88-0.986,1.258-1.545c2.404-3.557,2.401-8.16,2.311-12.453 c-0.209-9.975,0.83-19.934-1.334-29.576c-3.616-16.113-12.435-20.953-27.481-17.637c-13.789,3.039-23.812,15.76-21.027,30.111 c0.912,4.699,2.38,9.291,4.365,13.648c1.698,3.729,3.814,7.435,4.024,11.527c0.239,4.647-2.008,8.999-3.634,13.358 c-2.61,6.999-1.652,18.584,7.689,20.084c4.953,0.796,9.504-2.97,12.362-7.094c2.858-4.125,4.899-8.946,8.732-12.184 C444.915,220.437,450.349,219.021,453.782,215.466z"/>
        <g>
          <path style="fill:#DD4656;" d="M477.565,281.397c-1.463-6.099-0.394-14.755,0.676-21.017 c1.251-7.324-0.177-14.437-3.469-21.016c-2.992-5.98-8.036-10.832-10.961-17.07c-1.287-2.744-2.6-3.994-5.372-5.154 c-0.368-0.154-0.744-0.316-1.112-0.462c-3.191-1.386-6.039-2.566-7.51-2.951c-0.282-0.068-0.505-0.111-0.676-0.128 c-1.215-0.103-4.73,0.239-8.554,0.949c-3.832,0.753-7.142,2.25-8.22,2.797c-0.154,0.077-0.359,0.205-0.607,0.376 c-0.325,0.222-0.71,0.522-1.146,0.881c-0.325,0.274-0.693,0.582-1.086,0.915c-0.12,0.103-0.248,0.222-0.393,0.342 c-0.376,0.325-0.778,0.684-1.189,1.061c-0.316,0.282-0.65,0.582-0.975,0.907c-4.705,4.345-10.692,10.453-11.462,12.052 c-0.496,1.027,5.586,15.756,10.513,33.779c1.796,6.595,3.447,13.635,4.559,20.598c0.103,0.693,0.205,1.377,0.308,2.07 c1.728,11.933-4.705,42.187-3.909,42.033l0.702,0.308c23.583,10.436,51.186,4.978,69.029-13.652 C497.503,318.871,480.379,293.124,477.565,281.397z"/>
        </g>
        <g>
          <path style="fill:#FCCCA6;" d="M470.546,223.502c1.976,0.339,3.668,1.577,4.839,3.204 c7.354,10.217,27.508,42.127,27.073,50.253c-0.458,8.552-3.632,8.312-11.65,2.332c-8.018-5.98-19.534-25.204-24.969-34.375 c-2.605-4.396-6.219-12.96-3.931-17.249C464.315,223.155,468.247,223.107,470.546,223.502z"/>
          <path style="fill:#ECA06E;" d="M461.909,227.667c2.406-4.512,6.338-4.559,8.638-4.164c1.976,0.339,3.668,1.577,4.839,3.204 c4.75,6.6,14.837,22.247,21.27,34.693c-1.919,2.348-3.426,4.994-5.545,7.216c-1.74,1.824-3.684,3.437-5.647,5.023 c-7.3-8.814-15.608-21.947-19.622-28.722C463.235,240.52,459.621,231.956,461.909,227.667z"/>
          <path style="fill:#DD4656;" d="M482.855,271.837c5.039-5.145,8.885-6.752,13.83-13.313 c-6.343-10.75-16.611-26.622-21.006-32.572c-1.404-1.901-3.535-3.195-5.895-3.318c-2.575-0.134-6.764,0.226-9.081,4.813 c-2.039,4.035,2.103,14.083,4.439,18.12C467.672,249.938,475.026,263.075,482.855,271.837z"/>
          <path style="fill:#B52F3E;" d="M488.334,266.932c-1.736,1.428-3.516,2.9-5.483,4.901c-1.155-1.3-2.31-2.686-3.43-4.14 c-0.128-2.104-0.299-4.217-0.496-6.313c-0.479-5.038-1.352-10.042-2.652-14.935c-1.309-4.901-3.054-9.683-5.149-14.311 c-0.796-1.745-3.592-6.219-3.901-9.401c0.932-0.137,1.814-0.137,2.558-0.103c2.361,0.128,4.491,1.42,5.894,3.319 c1.745,2.361,4.414,6.278,7.391,10.82c0.445,1.232,0.855,2.481,1.249,3.729c1.668,5.338,2.814,10.829,3.456,16.38 C488.154,260.209,488.539,263.605,488.334,266.932z"/>
          <g>
            <path style="fill:#5563AD;" d="M467.09,217.178c-0.98-0.348-2.005-0.455-3.014-0.192c-4.987,1.3,0.724,10.082,1.914,12.702 c2.098,4.622,3.841,9.404,5.15,14.309c1.306,4.893,2.176,9.895,2.651,14.935c0.313,3.319,0.569,6.651,0.693,9.983 c0.068,1.827,0.002,3.557-0.177,5.358c-0.134,1.353-1.025,1.476,0.526,2.274c0.932,0.479,2.466-0.008,3.29-0.494 c1.306-0.769,2.221-2.061,2.93-3.401c3.008-5.68,2.301-12.083,1.587-18.22c-0.646-5.553-1.791-11.044-3.458-16.382 c-1.72-5.507-3.934-10.977-6.706-16.043C471.473,220.176,469.407,218.002,467.09,217.178z"/>
          </g>
          <path style="fill:#FCCCA6;" d="M493.982,278.02c-0.403,2.796-0.403,2.796,0.849,4.07c3.56,3.626,8.172,1.866,16.195-5.883 c9.983-9.641,23.769-37.918,23.769-37.918l-5.333-4.116c0,0-24.659,25.483-29.411,32.278 C496.356,271.736,494.605,273.7,493.982,278.02z"/>
          <g>
            <g>
              <path style="fill:#FCCCA6;" d="M541.019,230.494c-0.078-0.967,0.473-1.883,1.286-2.417c2.667-1.752,6.067-5.095,7.006-6.31 c1.073-1.39,2.255-2.282,3.514-1.74c1.259,0.542,0.118,5.987-6.082,10.271C545.059,231.462,541.248,233.322,541.019,230.494z "/>
              <g>
                <path style="fill:#FCCCA6;" d="M539.416,227.184c-0.335-0.989,0.013-2.098,0.738-2.877c2.38-2.559,5.124-6.98,5.806-8.508 c0.779-1.745,1.803-3.001,3.284-2.777s1.685,6.226-3.792,12.396C543.965,227.094,540.396,230.078,539.416,227.184z"/>
                <path style="fill:#ECA06E;" d="M545.454,225.419c-1.266,1.424-4.039,3.796-5.43,2.694c5.95-1.963,9.596-11.42,9.798-14.586 C550.652,215.105,550.089,220.203,545.454,225.419z"/>
              </g>
              <g>
                <path style="fill:#FCCCA6;" d="M535.986,225.413c-0.48-0.928-0.302-2.076,0.298-2.956c1.969-2.887,4.019-7.67,4.464-9.283 c0.508-1.842,1.333-3.237,2.83-3.239c1.497-0.001,2.6,5.903-1.889,12.825C540.469,224.641,537.389,228.126,535.986,225.413z "/>
                <path style="fill:#ECA06E;" d="M541.69,222.762c-1.038,1.598-3.424,4.359-4.965,3.479 c5.588-2.834,7.774-12.731,7.499-15.891C545.282,211.784,545.49,216.91,541.69,222.762z"/>
              </g>
              <g>
                <path style="fill:#FCCCA6;" d="M531.718,223.77c-0.503-0.915-0.355-2.067,0.222-2.962c1.895-2.936,3.822-7.77,4.226-9.393 c0.461-1.855,1.25-3.27,2.746-3.31c1.496-0.04,2.75,5.835-1.561,12.869C536.18,222.885,533.189,226.447,531.718,223.77z"/>
                <path style="fill:#ECA06E;" d="M537.352,220.975c-0.997,1.624-3.312,4.445-4.874,3.604 c5.514-2.975,7.446-12.925,7.091-16.077C540.663,209.909,541.002,215.028,537.352,220.975z"/>
              </g>
              <path style="fill:#FCCCA6;" d="M543.21,235.271c-3.414,5.365-9.34,7.331-13.976,4.863c-4.636-2.468-6.386-9.633-2.53-13.199 c2.814-2.602,4.115-5.388,5.955-6.775c1.574-1.186,4.184,0.641,6.276,1.755c3.572,1.902,9.261,6.563,7.617,8.488 C545.645,231.466,543.857,234.254,543.21,235.271z"/>
            </g>
            <path style="fill:#ECA06E;" d="M534.259,221.444c4.048,1.502,8.736,4.925,9.315,7.184c0,0,0.213-2.979-3.514-5.739 C536.674,220.383,534.259,221.444,534.259,221.444z"/>
            <path style="fill:#ECA06E;" d="M546.743,230.301c-0.08,0.05-0.161,0.101-0.237,0.168c0,0-0.01-0.005-0.016,0.005 c-0.925,1.111-2.641,3.805-3.279,4.802c-2.518,3.951-6.408,6.062-10.129,5.898c5.089-0.297,8.441-6.089,10.492-9.34 c0.693-1.101,1.236-1.921,1.659-2.137c0.337-0.181,0.821-0.538,1.393-1.009c2.19-1.854,5.604-5.555,6.63-7.935 C553.513,222.481,551.835,226.786,546.743,230.301z"/>
            <path style="fill:#ECA06E;" d="M530.943,232.819c0.832-1.789,0.955-5.532-1.66-8.728c0.464-0.595,0.59-0.77,0.994-1.303 C534.662,228.357,530.943,232.819,530.943,232.819z"/>
            <path style="fill:#FCCCA6;" d="M524.756,215.45c1.734-1.093,4.381,1.497,4.447,4.039c0.067,2.541,0.016,4.936,0.016,4.936 l-1.887,6.262l0.054,8.082c0,0-5.694-3.032-4.283-10.334c0.832-4.305,1.73-7.013,1.278-8.673 C523.93,218.1,523.75,216.084,524.756,215.45z"/>
          </g>
        </g>
        <g>
          <g>
            <g>
              <path style="fill:#FCCCA6;" d="M446.444,226.881l-5.699,1.09c-3.789,0.725-7.449-1.759-8.174-5.548l-4.253-22.229 l19.422-3.716l4.253,22.229C452.717,222.496,450.233,226.156,446.444,226.881z"/>
            </g>
            <path style="fill:#ECA06E;" d="M447.737,196.479l3.746,19.58c-9.549,3.627-16.682-0.727-21.854-9.017l-1.31-6.848 L447.737,196.479z"/>
          </g>
          <g>
            <g>
              <path style="fill:#ECA06E;" d="M454.606,182.083c1.062,3.612,2.833,8.986,6.498,6.168c3.456-2.657,4.396-7.026,2.649-11.539 s-4.302-6.273-7.491-3.953C453.353,174.876,453.391,177.835,454.606,182.083z"/>
            </g>
            <path style="fill:#FCCCA6;" d="M452.342,207.857c10.055-3.939,9.996-14.325,8.239-21.086 c-1.374-5.289-4.511-15.012-6.491-21.031c-2.049-6.226-7.646-10.882-14.199-11.006c-5.415-0.103-11.405,1.583-15.906,4.965 c-9.157,6.881-10.091,15.93-3.552,30.265C423.43,196.536,429.165,215.498,452.342,207.857z"/>
            <g>
              <path style="fill:#F98495;" d="M437.221,194.821c0.224,1.168-0.542,2.296-1.71,2.52c-1.168,0.224-2.296-0.542-2.52-1.71 c-0.224-1.168,0.542-2.296,1.71-2.52C435.87,192.887,436.998,193.653,437.221,194.821z"/>
              <path style="fill:#F98495;" d="M458.022,191.144c0.224,1.168-0.542,2.296-1.71,2.52c-1.168,0.224-2.296-0.542-2.52-1.71 c-0.224-1.168,0.542-2.296,1.71-2.52C456.67,189.21,457.798,189.976,458.022,191.144z"/>
              <g>
                <path style="fill:none;stroke:#ECA06E;stroke-width:1.013;stroke-linecap:round;stroke-linejoin:round;stroke-dasharray:17.9704;" d=" M445.882,179.953c3.038,4.418,6.531,11.11,5.405,12.48c-0.958,1.165-2.906,1.495-3.651,0.814"/>
              </g>
              <path style="fill:none;stroke:#513217;stroke-width:1.031;stroke-linecap:round;stroke-linejoin:round;stroke-miterlimit:10;stroke-dasharray:66.1567;" d=" M436.331,190.166c-0.466-2.437-0.159-4.543,0.687-4.705c0.845-0.162,1.909,1.682,2.375,4.119"/>
              <path style="fill:none;stroke:#513217;stroke-width:1.031;stroke-linecap:round;stroke-linejoin:round;stroke-miterlimit:10;stroke-dasharray:66.1567;" d=" M452.625,185.86c-0.447-2.339-0.152-4.361,0.659-4.516c0.812-0.155,1.832,1.615,2.28,3.954"/>
              <path style="fill:none;stroke:#ECA06E;stroke-width:1.013;stroke-linecap:round;stroke-linejoin:round;stroke-miterlimit:10;stroke-dasharray:45.3757;" d=" M441.416,197.929c3.987,6.247,9.739,3.619,9.624-0.828"/>
              <path style="fill:none;stroke:#513217;stroke-width:2.1782;stroke-linecap:round;stroke-linejoin:round;stroke-miterlimit:10;stroke-dasharray:66.1567;" d=" M436.975,178.938c0,0-3.364,0.54-4.438,3.989"/>
              <path style="fill:none;stroke:#513217;stroke-width:2.1782;stroke-linecap:round;stroke-linejoin:round;stroke-miterlimit:10;stroke-dasharray:66.1567;" d=" M454.065,176.994c0,0-1.991-1.439-4.323-0.186"/>
            </g>
            <path style="fill:#36210F;" d="M422.535,191.67c3.968,2.477,6.038-12.123,6.29-13.345c3.86-0.279,8.26-2.949,10.154-6.34 c1.346-2.411,1.714-5.351,1.002-8.019c0.901,1.749,1.814,3.517,3.096,5.009c2.431,2.829,4.994,3.211,8.483,2.622 c3.031-0.512,4.677-0.469,5.594,3.005c0.362-0.944,0.663-1.915,0.982-2.878c0.103-0.311,0.206-0.626,0.238-0.952 c0.232-2.43-3.463-4.8-4.691-6.722c-1.761-2.756-3.045-5.533-5.711-7.6c-4.903-3.8-19.415-3.316-28.291,5.413 C410.807,170.588,416.036,187.579,422.535,191.67z"/>
            <g>
              <path style="fill:#FCCCA6;" d="M423.776,193.999c1.488,3.471,4.591,7.753-1.014,8.618c-5.285,0.816-9.285-1.613-10.728-6.283 c-1.443-4.67-0.153-7.983,4.63-8.831C420.733,186.783,421.993,189.944,423.776,193.999z"/>
              <g>
                <path style="fill:#ECA06E;" d="M421.749,199.192c-0.161-1.697-1.336-1.053-2.438-1.682c-1.074-0.613-1.464-1.816-1.11-2.939 c0.141-0.459,0.266-0.855-0.272-1.843c-0.667-1.223-2.259,0.434-3.047,0.924c-0.705-1.326,0.883-2.979,2.201-3.189 c0.539-0.086,1.565-0.016,2.359,1.438c0.826,1.502,0.654,2.399,0.404,3.188c-0.127,0.414-0.138,0.447,0.268,0.862 c0.199,0.202,0.485,0.259,0.927,0.326c0.496,0.077,1.174,0.182,1.556,0.804 C423.071,197.857,422.895,199.125,421.749,199.192z"/>
              </g>
            </g>
          </g>
        </g>
        <g>
          <path style="fill:#FCCCA6;" d="M417.425,232.609c-1.86,0.747-3.255,2.312-4.059,4.148 c-5.044,11.533-18.05,46.963-15.919,54.817c2.243,8.266,3.887,9.312,10.471,1.781c6.583-7.53,15.216-30.691,18.604-40.798 c1.624-4.844,3.36-13.977,0.222-17.69C423.444,230.962,419.591,231.74,417.425,232.609z"/>
          <path style="fill:#ECA06E;" d="M406.595,280.605c-2.531-1.839-4.379-4.047-6.534-6.215 c3.712-13.406,10.107-30.32,13.305-37.632c0.803-1.837,2.198-3.402,4.059-4.148c2.166-0.869,6.02-1.648,9.319,2.258 c3.138,3.714,1.402,12.846-0.222,17.69c-2.54,7.576-8.026,22.485-13.387,32.649 C410.927,283.715,408.739,282.162,406.595,280.605z"/>
          <path style="fill:#DD4656;" d="M415.539,282.451c-4.964-3.082-10.105-4.736-16.316-10.112 c3.945-11.842,10.651-29.516,13.699-36.256c0.974-2.154,2.785-3.866,5.067-4.482c2.489-0.672,6.66-1.199,9.889,2.799 c2.841,3.517,0.901,14.211-0.536,18.648C425.786,257.853,421.354,272.241,415.539,282.451z"/>
          <g>
            <path style="fill:#B52F3E;" d="M435.283,270.319c-0.068,1.728-0.881,17.552-2.181,17.681c-0.941,0.094-1.762,0.18-2.523,0.257 c-1.112-6.963-2.763-14.003-4.559-20.598c0-3.139-0.163-6.296-0.496-9.418c-0.547-5.047-1.531-10.042-2.9-14.935 c-1.172-4.217-4.517-9.58-0.744-13.395c2.173-2.19,3.747-2.087,4.944-0.941c1.762,1.694,2.694,5.688,3.473,7.998 c1.83,5.415,3.233,10.975,4.08,16.629C435.206,259.131,435.497,264.725,435.283,270.319z"/>
          </g>
          <g>
            <path style="fill:#5563AD;" d="M423.083,225.478c-1.194-1.148-2.769-1.244-4.937,0.946c-3.773,3.812-0.435,9.177,0.742,13.396 c1.365,4.889,2.353,9.882,2.895,14.93c0.54,5.035,0.633,10.111,0.33,15.165c-0.091,1.514-0.994,15.427-2.073,15.535 c3.73-0.375,5.595-0.563,9.325-0.938c1.298-0.13,2.116-15.956,2.182-17.686c0.213-5.587-0.076-11.188-0.906-16.718 c-0.848-5.653-2.254-11.211-4.082-16.625C425.78,231.171,424.848,227.175,423.083,225.478z"/>
          </g>
        </g>
      </g>
    </g>
    <g>
      <defs>
        <path id="SVGID_1_" d="M662.536,319.457c0,64.497-58.722,116.782-131.159,116.782s-134.284-52.421-131.159-116.782 c5.004-103.08,92.628-69.126,129.027-79.645"/>
      </defs>
      <clipPath id="SVGID_00000115473836542871939280000012107365860807137935_">
        <path d="M662.536,319.457c0,64.497-58.722,116.782-131.159,116.782s-134.284-52.421-131.159-116.782 c5.004-103.08,92.628-69.126,129.027-79.645" style="overflow: visible;"/>
      </clipPath>
      <path style="opacity:0.42;clip-path:url(#SVGID_00000115473836542871939280000012107365860807137935_);fill:#5563AD;" d=" M518.009,415.678c-18.66-2.135-36.675-7.2-53.727-15.072c-9.619-4.441-18.948-9.422-27.444-15.789 c-2.409-1.805-4.666-3.764-6.861-5.787c3.672,23.498,15.767,45.756,35.754,61.844c42.617,34.302,104.972,27.562,139.274-15.055 c9.066-11.264,15.263-23.906,18.69-37.045C593.708,411.03,554.915,419.901,518.009,415.678z"/>
    </g>
    <g>
      <path style="fill:#F8A41F;" d="M543.772,295.693c0,7.521-10.47,26.495-15.311,34.867c-1.069,1.849-3.737,1.849-4.805,0 c-4.841-8.372-15.311-27.346-15.311-34.867c0-9.783,7.931-17.714,17.713-17.714S543.772,285.91,543.772,295.693z"/>
      <circle style="fill:#FFFFFF;" cx="526.058" cy="295.562" r="9.899"/>
    </g>
    <g>
      <g>
        <polygon style="fill:#F8E5C8;" points="497.817,336.187 481.565,426.406 416.843,435.614 458.15,339.763 &#9;&#9;&#9;&#9;"/>
        <polygon style="fill:#F8B03E;" points="458.15,339.763 416.843,435.614 481.565,426.406 480.7,431.208 408.236,441.716 &#10;&#9;&#9;&#9;&#9;&#9;455.259,338.175 498.147,334.355 497.817,336.187 &#9;&#9;&#9;&#9;"/>
        <polygon style="fill:#F8B03E;" points="488.697,347.206 461.004,349.869 463.681,342.959 490.196,340.512 &#9;&#9;&#9;&#9;"/>
        <polygon style="fill:#F8B03E;" points="480.118,385.521 445.612,389.598 456.343,361.899 486.092,358.839 &#9;&#9;&#9;&#9;"/>
        <polygon style="fill:#F8B03E;" points="470.189,357.632 457.499,358.916 459.671,353.31 471.941,352.107 &#9;&#9;&#9;&#9;"/>
        <polygon style="fill:#5563AD;" points="448.128,422.73 431.912,424.959 443.657,394.644 457.753,392.94 &#9;&#9;&#9;&#9;"/>
        <polygon style="fill:#F8B03E;" points="477.404,397.645 459.284,399.911 461.554,392.48 479.033,390.366 &#9;&#9;&#9;&#9;"/>
        <polygon style="fill:#5563AD;" points="487.463,352.718 477.155,353.742 477.781,351.534 487.952,350.537 &#9;&#9;&#9;&#9;"/>
      </g>
      <g>
        <polygon style="fill:#E3C79B;" points="525.205,340.102 525.206,436.501 481.565,426.406 497.817,336.187 &#9;&#9;&#9;&#9;"/>
        <polygon style="fill:#F89E20;" points="525.205,338.175 525.205,340.102 497.817,336.187 498.147,334.355 &#9;&#9;&#9;&#9;"/>
        <polygon style="fill:#F89E20;" points="525.206,436.501 525.206,441.716 480.7,431.208 481.565,426.406 &#9;&#9;&#9;&#9;"/>
        <g>
          <polygon style="fill:#E38E1C;" points="516.659,367.275 498.01,364.12 501.577,340.518 517.796,342.894 &#9;&#9;&#9;&#9;&#9;"/>
          <polygon style="fill:#E38E1C;" points="514.959,403.684 515.698,387.862 495.011,383.965 492.715,399.165 &#9;&#9;&#9;&#9;&#9;"/>
          <polygon style="fill:#E38E1C;" points="492.004,403.868 489.658,419.39 513.974,424.81 514.731,408.589 &#9;&#9;&#9;&#9;&#9;"/>
          <g>
            <polygon style="fill:#5563AD;" points="516.292,375.14 496.863,371.711 497.302,368.806 516.432,372.129 &#9;&#9;&#9;&#9;&#9;&#9;"/>
            <polygon style="fill:#5563AD;" points="515.943,382.604 495.776,378.904 496.249,375.774 516.095,379.355 &#9;&#9;&#9;&#9;&#9;&#9;"/>
          </g>
        </g>
      </g>
      <g>
        <polygon style="fill:#F8E5C8;" points="566.842,336.122 591.536,426.24 525.206,436.501 525.205,340.102 &#9;&#9;&#9;&#9;"/>
        <polygon style="fill:#F8B03E;" points="566.34,334.291 566.842,336.122 525.205,340.102 525.205,338.175 &#9;&#9;&#9;&#9;"/>
        <polygon style="fill:#F8B03E;" points="591.536,426.24 592.85,431.035 525.206,441.716 525.206,436.501 &#9;&#9;&#9;&#9;"/>
        <polygon style="fill:#F8B03E;" points="575.85,397.332 533.18,403.086 533.945,424.095 580.57,417.2 &#9;&#9;&#9;&#9;"/>
        <polygon style="fill:#F8B03E;" points="562.023,390.425 543.664,392.8 544.578,403.133 563.825,400.518 &#9;&#9;&#9;&#9;"/>
        <polygon style="fill:#5563AD;" points="572.607,383.681 532.656,388.714 532.284,378.517 570.299,373.967 &#9;&#9;&#9;&#9;"/>
        <polygon style="fill:#F8B03E;" points="548.148,370.421 568.885,368.019 563.782,346.541 545.437,348.411 &#9;&#9;&#9;&#9;"/>
        <polygon style="fill:#F8B03E;" points="543.083,355.757 530.27,357.12 530.061,349.979 542.351,348.726 &#9;&#9;&#9;&#9;"/>
        <polygon style="fill:#5563AD;" points="544.637,370.665 530.714,372.276 530.431,362.605 543.646,361.155 &#9;&#9;&#9;&#9;"/>
        <polygon style="fill:#F8B03E;" points="562.911,342.875 529.949,346.159 529.872,343.522 562.31,340.344 &#9;&#9;&#9;&#9;"/>
      </g>
      <g>
        <polygon style="fill:#E3C79B;" points="592.177,339.578 633.354,435.131 591.536,426.24 566.842,336.122 &#9;&#9;&#9;&#9;"/>
        <polygon style="fill:#F89E20;" points="595.147,338.175 642.17,441.716 592.85,431.035 591.536,426.24 633.354,435.131 &#10;&#9;&#9;&#9;&#9;&#9;592.177,339.578 566.842,336.122 566.34,334.291 &#9;&#9;&#9;&#9;"/>
        <g>
          <polygon style="fill:#E38E1C;" points="577.284,360.33 598.821,363.704 590.399,343.166 571.426,340.514 &#9;&#9;&#9;&#9;&#9;"/>
          <polygon style="fill:#E38E1C;" points="608.038,418.933 618.356,421.03 608.563,396.127 599.398,394.446 &#9;&#9;&#9;&#9;&#9;"/>
          <polygon style="fill:#E38E1C;" points="609.729,419.276 593.633,416.005 591.08,407.355 606.533,410.385 &#9;&#9;&#9;&#9;&#9;"/>
          <polygon style="fill:#5563AD;" points="604.68,377.993 599.983,366.539 578.001,363.044 581.25,374.051 &#9;&#9;&#9;&#9;&#9;"/>
          <polygon style="fill:#E38E1C;" points="582.465,378.167 583.7,382.352 608.23,386.651 606.439,382.284 &#9;&#9;&#9;&#9;&#9;"/>
        </g>
      </g>
    </g>
    <g>
      <path style="fill:#FCCCA6;" d="M397.482,289.039c0.103-2.894,0.103-2.894,1.598-3.952c4.252-3.01,8.584-0.394,15.266,8.884 c8.315,11.544,17.216,40.843,17.216,40.843l-5.261,4.387c0,0-21.247-29.666-24.803-37.387 C398.733,295.811,397.323,293.511,397.482,289.039z"/>
      <g>
        <g>
          <path style="fill:#FCCCA6;" d="M430.654,342.495c0.757-0.139,1.525,0.223,2.012,0.823c1.596,1.967,4.508,4.385,5.543,5.029 c1.183,0.736,1.982,1.599,1.655,2.636c-0.328,1.038-4.719,0.571-8.598-3.983C430.211,345.762,428.439,342.901,430.654,342.495z "/>
          <path style="fill:#ECA06E;" d="M439.93,350.436c-0.038-0.802-0.754-1.486-1.721-2.085c-1.021-0.632-3.831-2.968-5.438-4.899 c0.307,1.047,1.181,2.266,1.818,2.978C436.418,348.485,438.322,349.752,439.93,350.436z"/>
        </g>
        <g>
          <g>
            <path style="fill:#FCCCA6;" d="M433.728,340.553c0.811-0.172,1.652,0.205,2.2,0.849c1.796,2.114,5.027,4.689,6.167,5.368 c1.303,0.776,2.198,1.701,1.884,2.847c-0.314,1.146-5.065,0.749-9.42-4.142C433.375,344.147,431.355,341.056,433.728,340.553z "/>
          </g>
          <path style="fill:#ECA06E;" d="M438.416,345.302c1.941,1.67,3.846,2.664,5.463,3.163c-0.284-0.643-0.946-1.199-1.78-1.697 c-1.128-0.668-4.252-3.165-6.069-5.251C435.875,342.702,437.429,344.438,438.416,345.302z"/>
        </g>
        <g>
          <g>
            <path style="fill:#FCCCA6;" d="M435.527,338.047c0.782-0.276,1.665-0.01,2.291,0.558c2.054,1.864,5.591,4,6.809,4.526 c1.393,0.601,2.399,1.402,2.237,2.579c-0.163,1.177-4.926,1.398-9.877-2.889C435.642,341.657,433.24,338.853,435.527,338.047z "/>
          </g>
          <path style="fill:#ECA06E;" d="M446.716,344.754c-0.325-0.692-1.116-1.208-2.092-1.622c-1.213-0.522-4.754-2.663-6.805-4.524 c-0.158-0.136-0.322-0.264-0.506-0.354c0.448,0.948,1.305,1.947,1.932,2.542C442.042,343.451,444.84,344.54,446.716,344.754z"/>
        </g>
        <g>
          <path style="fill:#FCCCA6;" d="M437.285,334.871c0.775-0.295,1.664-0.053,2.305,0.499c2.101,1.811,5.691,3.856,6.923,4.35 c1.408,0.566,2.434,1.341,2.302,2.521c-0.133,1.181-4.888,1.523-9.947-2.636C437.493,338.477,435.019,335.736,437.285,334.871z "/>
        </g>
        <path style="fill:#FCCCA6;" d="M445.206,332.642c0.602,1.511-1.65,1.965-3.771,1.418c-1.954-0.504-4.164-0.977-4.164-0.977 l-4.614-2.379l-6.316-1.128c0,0,3.19-4.005,8.686-1.847c3.24,1.272,5.221,1.729,6.607,2.51 C443.368,331.218,444.857,331.766,445.206,332.642z"/>
        <path style="fill:#ECA06E;" d="M436.327,331.121c0.792,0.274,1.498,0.849,2.211,1.255c0.538,0.307,1.096,0.582,1.671,0.816 c0.716,0.39,1.454,0.759,2.208,1.043c-0.324-0.036-0.653-0.09-0.982-0.175c-1.954-0.504-4.164-0.977-4.164-0.977l-0.53-0.273 C436.607,332.246,436.363,331.695,436.327,331.121z"/>
        <path style="fill:#FCCCA6;" d="M426.409,341.298c-3.305-4.537-3.998-7.216-1.401-10.477c2.598-3.261,8.443-3.591,10.668-0.065 c1.623,2.573,3.61,3.992,4.426,5.629c0.698,1.4-1.106,3.173-2.278,4.644c-2.001,2.512-5.493,7.289-6.757,5.728 C430.369,345.895,426.972,342.072,426.409,341.298z"/>
      </g>
    </g>
    <g>
      <path style="fill:#FCCCA6;" d="M647.058,274.919c2.94-0.389,4.647,0.236,6.156,2.789c2.716,4.593,2.621,9.44-5.613,17.77 c-10.245,10.364-40.104,24.493-40.104,24.493l-4.711-5.632c0,0,24.858-28.283,32.051-33.188 C640.431,277.334,642.515,275.519,647.058,274.919z"/>
      <path style="fill:#DD4656;" d="M625.117,310.826c8.392-4.695,17.635-10.443,22.484-15.349c8.234-8.329,8.329-13.176,5.613-17.77 c-1.51-2.553-3.216-3.178-6.156-2.789c-4.544,0.601-6.627,2.416-12.221,6.231c-3.488,2.379-11.132,10.257-18.08,17.74 C620.003,302.497,622.747,306.578,625.117,310.826z"/>
      <g>
        <g>
          <path style="fill:#FCCCA6;" d="M608.319,325.327c-0.912-0.217-1.868,0.174-2.497,0.872c-2.066,2.288-5.758,5.041-7.058,5.758 c-1.485,0.82-2.511,1.817-2.179,3.099c0.332,1.282,5.698,0.995,10.703-4.293C608.647,329.327,610.985,325.962,608.319,325.327z "/>
          <path style="fill:#ECA06E;" d="M596.537,334.387c0.097-0.972,1.011-1.758,2.225-2.425c1.282-0.703,4.846-3.362,6.922-5.608 c-0.44,1.253-1.58,2.679-2.399,3.504C600.93,332.239,598.536,333.658,596.537,334.387z"/>
        </g>
        <g>
          <g>
            <path style="fill:#FCCCA6;" d="M604.707,322.771c-0.975-0.261-2.021,0.144-2.728,0.892c-2.318,2.455-6.408,5.378-7.838,6.131 c-1.634,0.86-2.78,1.927-2.472,3.34c0.308,1.413,6.108,1.234,11.713-4.432C604.905,327.161,607.558,323.534,604.707,322.771z"/>
          </g>
          <path style="fill:#ECA06E;" d="M598.705,328.243c-2.465,1.906-4.844,2.992-6.841,3.496c0.386-0.763,1.226-1.396,2.272-1.949 c1.413-0.74,5.37-3.576,7.711-5.994C601.96,325.246,599.96,327.257,598.705,328.243z"/>
        </g>
        <g>
          <g>
            <path style="fill:#FCCCA6;" d="M602.68,319.611c-0.933-0.385-2.023-0.119-2.82,0.532c-2.616,2.135-7.05,4.504-8.565,5.066 c-1.731,0.642-3.005,1.551-2.883,2.992c0.123,1.441,5.897,2.013,12.188-2.881C602.309,323.99,605.408,320.737,602.68,319.611z "/>
          </g>
          <path style="fill:#ECA06E;" d="M588.653,327.048c0.439-0.82,1.434-1.397,2.646-1.838c1.507-0.557,5.947-2.933,8.559-5.064 c0.201-0.155,0.409-0.3,0.638-0.397c-0.605,1.124-1.71,2.283-2.511,2.966C594.417,325.762,590.947,326.908,588.653,327.048z"/>
        </g>
        <g>
          <path style="fill:#FCCCA6;" d="M600.745,315.639c-0.923-0.409-2.019-0.171-2.833,0.46c-2.669,2.067-7.163,4.323-8.691,4.846 c-1.747,0.598-3.044,1.474-2.958,2.918c0.086,1.444,5.844,2.163,12.258-2.569C600.263,320.007,603.444,316.833,600.745,315.639 z"/>
        </g>
        <path style="fill:#FCCCA6;" d="M591.261,312.424c-0.828,1.799,1.88,2.494,4.492,1.964c2.407-0.488,5.124-0.921,5.124-0.921 l5.76-2.596l7.748-0.967c0,0-3.622-5.072-10.439-2.8c-4.019,1.34-6.456,1.768-8.19,2.629 C593.585,310.81,591.741,311.381,591.261,312.424z"/>
        <path style="fill:#ECA06E;" d="M602.149,311.142c-0.98,0.283-1.875,0.936-2.768,1.385c-0.674,0.339-1.369,0.637-2.083,0.885 c-0.896,0.429-1.815,0.829-2.75,1.126c0.396-0.023,0.799-0.068,1.204-0.15c2.407-0.488,5.124-0.921,5.124-0.921l0.661-0.298 C601.738,312.491,602.069,311.837,602.149,311.142z"/>
        <path style="fill:#FCCCA6;" d="M613.554,324.144c4.307-5.303,5.32-8.515,2.371-12.644c-2.949-4.129-10.032-4.903-12.961-0.759 c-2.137,3.024-4.642,4.621-5.739,6.559c-0.938,1.657,1.141,3.926,2.472,5.79c2.272,3.182,6.211,9.21,7.846,7.393 C608.448,329.478,612.82,325.048,613.554,324.144z"/>
      </g>
    </g>
  </g>
</svg>